version 1.00
168
[-1.88953,0.552444,0.028245][-0.700787,-0.00787402,-0.708661][0,0,0][-1.88953,0.049684,0.028245][-0.779528,-0.614173,0.102362][0,0,0][-1.88953,0.049684,0.033247][-0.448819,-0.574803,0.685039][0,0,0][-1.88953,0.552444,0.028245][-0.700787,-0.00787402,-0.708661][0,0,0][-1.88953,0.049684,0.033247][-0.448819,-0.574803,0.685039][0,0,0][-1.88953,0.552444,0.033247][-0.480315,0.708661,0.519685][0,0,0][-1.88953,-0.118232,0.028245][0.015748,0.700787,-0.708661][0,0,0][-1.88953,-0.525402,0.028245][0.149606,-0.700787,-0.692913][0,0,0][-1.88953,-0.525402,0.033247][-0.417323,-0.622047,0.661417][0,0,0][-1.88953,-0.118232,0.028245][0.015748,0.700787,-0.708661][0,0,0][-1.88953,-0.525402,0.033247][-0.417323,-0.622047,0.661417][0,0,0][-1.88953,-0.118232,0.033247][-0.574803,0.637795,0.511811][0,0,0][1.88954,-0.525402,0.028245][-0.133858,-0.637795,-0.755906][0,0,0][1.88954,-0.118232,0.028245][-0.015748,0.779528,-0.629921][0,0,0][1.88954,-0.118232,0.033247][0.456693,0.559055,0.692913][0,0,0][1.88954,-0.525402,0.028245][-0.133858,-0.637795,-0.755906][0,0,0][1.88954,-0.118232,0.033247][0.456693,0.559055,0.692913][0,0,0][1.88954,-0.525402,0.033247][0.480315,-0.708661,0.519685][0,0,0][1.88954,0.049684,0.028245][0.708661,-0.700787,0.110236][0,0,0][1.88954,0.552444,0.028245][0.629921,0,-0.771654][0,0,0][1.88954,0.552444,0.033247][0.417323,0.622047,0.661417][0,0,0][1.88954,0.049684,0.028245][0.708661,-0.700787,0.110236][0,0,0][1.88954,0.552444,0.033247][0.417323,0.622047,0.661417][0,0,0][1.88954,0.049684,0.033247][0.551181,-0.661417,0.511811][0,0,0][1.89168,-0.11823,0.010203][0.614173,-0.598425,-0.519685][0.52249,0.854339,0][1.89168,0.049684,0.010203][0.629921,0.574803,-0.519685][0.52249,0.830624,0][1.88954,0.049684,0.033247][0.700787,0.661417,-0.267717][0.519235,0.830624,0][1.89168,-0.11823,0.010203][0.614173,-0.598425,-0.519685][0.52249,0.854339,0][1.88954,0.049684,0.033247][0.700787,0.661417,-0.267717][0.519235,0.830624,0][1.88954,-0.118232,0.033247][0.669291,-0.677165,-0.291339][0.519235,0.854339,0][1.88748,0.049684,0.055475][0.527559,0.574803,0.629921][0.516096,0.830624,0][1.88954,-0.118232,0.033247][0.669291,-0.677165,-0.291339][0.519235,0.854339,0][1.88954,0.049684,0.033247][0.700787,0.661417,-0.267717][0.519235,0.830624,0][1.88954,-0.118232,0.033247][0.669291,-0.677165,-0.291339][0.519235,0.854339,0][1.88748,0.049684,0.055475][0.527559,0.574803,0.629921][0.516096,0.830624,0][1.88748,-0.118232,0.055475][0.503937,-0.598425,0.622047][0.516096,0.854339,0][1.89168,-0.650466,0.010203][0.574803,-0.629921,-0.519685][0.552796,0.848287,0][1.89168,-0.525402,0.010203][0.685039,0.503937,-0.527559][0.552796,0.830624,0][1.88954,-0.525402,0.033247][0.779528,0.598425,-0.188976][0.549542,0.830624,0][1.89168,-0.650466,0.010203][0.574803,-0.629921,-0.519685][0.552796,0.848287,0][1.88954,-0.525402,0.033247][0.779528,0.598425,-0.188976][0.549542,0.830624,0][1.88954,-0.650466,0.033247][0.637795,-0.771654,0.0551181][0.549542,0.848287,0][1.88748,-0.525402,0.055475][0.574803,0.503937,0.645669][0.546402,0.830624,0][1.88954,-0.650466,0.033247][0.637795,-0.771654,0.0551181][0.549542,0.848287,0][1.88954,-0.525402,0.033247][0.779528,0.598425,-0.188976][0.549542,0.830624,0][1.88954,-0.650466,0.033247][0.637795,-0.771654,0.0551181][0.549542,0.848287,0][1.88748,-0.525402,0.055475][0.574803,0.503937,0.645669][0.546402,0.830624,0][1.88748,-0.650466,0.055475][0.472441,-0.629921,0.614173][0.546402,0.848287,0][1.89168,0.552444,0.010203][0.685039,-0.503937,-0.527559][0.483657,0.849668,0][1.89168,0.650482,0.010203][0.582677,0.629921,-0.519685][0.483657,0.835822,0][1.88954,0.650482,0.033247][0.645669,0.76378,0.0629921][0.480403,0.835822,0][1.89168,0.552444,0.010203][0.685039,-0.503937,-0.527559][0.483657,0.849668,0][1.88954,0.650482,0.033247][0.645669,0.76378,0.0629921][0.480403,0.835822,0][1.88954,0.552444,0.033247][0.771654,-0.598425,-0.19685][0.480403,0.849668,0][1.88954,0.552444,0.033247][0.771654,-0.598425,-0.19685][0.480403,0.849668,0][1.88954,0.650482,0.033247][0.645669,0.76378,0.0629921][0.480403,0.835822,0][1.88748,0.650482,0.055475][0.480315,0.629921,0.614173][0.477264,0.835822,0][1.88954,0.552444,0.033247][0.771654,-0.598425,-0.19685][0.480403,0.849668,0][1.88748,0.650482,0.055475][0.480315,0.629921,0.614173][0.477264,0.835822,0][1.88748,0.552444,0.055475][0.574803,-0.503937,0.645669][0.477264,0.849668,0][-1.89166,-0.11823,0.010203][-0.614173,-0.598425,-0.519685][0.52249,0.854339,0][-1.88953,0.049684,0.033247][-0.700787,0.661417,-0.267717][0.519235,0.830624,0][-1.89166,0.049684,0.010203][-0.629921,0.574803,-0.519685][0.52249,0.830624,0][-1.88953,0.049684,0.033247][-0.700787,0.661417,-0.267717][0.519235,0.830624,0][-1.89166,-0.11823,0.010203][-0.614173,-0.598425,-0.519685][0.52249,0.854339,0][-1.88953,-0.118232,0.033247][-0.669291,-0.677165,-0.291339][0.519235,0.854339,0][-1.88953,0.049684,0.033247][-0.700787,0.661417,-0.267717][0.519235,0.830624,0][-1.88953,-0.118232,0.033247][-0.669291,-0.677165,-0.291339][0.519235,0.854339,0][-1.88747,0.049684,0.055475][-0.527559,0.574803,0.629921][0.516096,0.830624,0][-1.88747,-0.118232,0.055475][-0.503937,-0.598425,0.622047][0.516096,0.854339,0][-1.88747,0.049684,0.055475][-0.527559,0.574803,0.629921][0.516096,0.830624,0][-1.88953,-0.118232,0.033247][-0.669291,-0.677165,-0.291339][0.519235,0.854339,0][-1.89166,-0.650466,0.010203][-0.574803,-0.629921,-0.519685][0.552796,0.848287,0][-1.88953,-0.525402,0.033247][-0.779528,0.598425,-0.188976][0.549542,0.830624,0][-1.89166,-0.525402,0.010203][-0.685039,0.503937,-0.527559][0.552796,0.830624,0][-1.88953,-0.525402,0.033247][-0.779528,0.598425,-0.188976][0.549542,0.830624,0][-1.89166,-0.650466,0.010203][-0.574803,-0.629921,-0.519685][0.552796,0.848287,0][-1.88953,-0.650466,0.033247][-0.637795,-0.771654,0.0551181][0.549542,0.848287,0][-1.88953,-0.525402,0.033247][-0.779528,0.598425,-0.188976][0.549542,0.830624,0][-1.88953,-0.650466,0.033247][-0.637795,-0.771654,0.0551181][0.549542,0.848287,0][-1.88747,-0.525402,0.055475][-0.574803,0.503937,0.645669][0.546402,0.830624,0][-1.88747,-0.650466,0.055475][-0.472441,-0.629921,0.614173][0.546402,0.848287,0][-1.88747,-0.525402,0.055475][-0.574803,0.503937,0.645669][0.546402,0.830624,0][-1.88953,-0.650466,0.033247][-0.637795,-0.771654,0.0551181][0.549542,0.848287,0][-1.89166,0.552444,0.010203][-0.685039,-0.503937,-0.527559][0.483657,0.849668,0][-1.88953,0.650482,0.033247][-0.645669,0.76378,0.0629921][0.480403,0.835822,0][-1.89166,0.650482,0.010203][-0.582677,0.629921,-0.519685][0.483657,0.835822,0][-1.88953,0.650482,0.033247][-0.645669,0.76378,0.0629921][0.480403,0.835822,0][-1.89166,0.552444,0.010203][-0.685039,-0.503937,-0.527559][0.483657,0.849668,0][-1.88953,0.552444,0.033247][-0.771654,-0.598425,-0.19685][0.480403,0.849668,0][-1.88953,0.650482,0.033247][-0.645669,0.76378,0.0629921][0.480403,0.835822,0][-1.88953,0.552444,0.033247][-0.771654,-0.598425,-0.19685][0.480403,0.849668,0][-1.88747,0.650482,0.055475][-0.480315,0.629921,0.614173][0.477264,0.835822,0][-1.88747,0.552444,0.055475][-0.574803,-0.503937,0.645669][0.477264,0.849668,0][-1.88747,0.650482,0.055475][-0.480315,0.629921,0.614173][0.477264,0.835822,0][-1.88953,0.552444,0.033247][-0.771654,-0.598425,-0.19685][0.480403,0.849668,0][1.89168,0.650482,0.010203][0.582677,0.629921,-0.519685][0.589807,0.729976,0][1.18248,0.532214,-0.055475][-0.559055,0.519685,-0.637795][0.589807,0.830563,0][1.18035,0.532214,-0.032431][-0.755906,0.645669,-0.0708661][0.593076,0.830563,0][1.89168,0.650482,0.010203][0.582677,0.629921,-0.519685][0.589807,0.729976,0][1.18035,0.532214,-0.032431][-0.755906,0.645669,-0.0708661][0.593076,0.830563,0][1.88954,0.650482,0.033247][0.645669,0.76378,0.0629921][0.593076,0.729976,0][1.88954,0.650482,0.033247][0.645669,0.76378,0.0629921][0.593076,0.729976,0][1.18035,0.532214,-0.032431][-0.755906,0.645669,-0.0708661][0.593076,0.830563,0][1.17829,0.532214,-0.010203][-0.669291,0.519685,0.527559][0.596228,0.830563,0][1.17829,0.532214,-0.010203][-0.669291,0.519685,0.527559][0.596228,0.830563,0][1.88748,0.650482,0.055475][0.480315,0.629921,0.614173][0.596228,0.729976,0][1.88954,0.650482,0.033247][0.645669,0.76378,0.0629921][0.593076,0.729976,0][-1.89166,0.650482,0.010203][-0.582677,0.629921,-0.519685][0.589807,0.729976,0][-1.18033,0.532214,-0.032431][0.755906,0.645669,-0.0708661][0.593076,0.830563,0][-1.18247,0.532214,-0.055475][0.559055,0.519685,-0.637795][0.589807,0.830563,0][-1.88953,0.650482,0.033247][-0.645669,0.76378,0.0629921][0.593076,0.729976,0][-1.18033,0.532214,-0.032431][0.755906,0.645669,-0.0708661][0.593076,0.830563,0][-1.89166,0.650482,0.010203][-0.582677,0.629921,-0.519685][0.589807,0.729976,0][-1.18033,0.532214,-0.032431][0.755906,0.645669,-0.0708661][0.593076,0.830563,0][-1.88953,0.650482,0.033247][-0.645669,0.76378,0.0629921][0.593076,0.729976,0][-1.17827,0.532214,-0.010203][0.669291,0.519685,0.527559][0.596228,0.830563,0][-1.88747,0.650482,0.055475][-0.480315,0.629921,0.614173][0.596228,0.729976,0][-1.17827,0.532214,-0.010203][0.669291,0.519685,0.527559][0.596228,0.830563,0][-1.88953,0.650482,0.033247][-0.645669,0.76378,0.0629921][0.593076,0.729976,0][1.89168,-0.650466,0.010203][0.574803,-0.629921,-0.519685][0.576764,0.729976,0][1.18035,-0.517394,-0.032431][-0.76378,-0.637795,-0.0708661][0.580032,0.830563,0][1.18248,-0.517394,-0.055475][-0.566929,-0.519685,-0.645669][0.576764,0.830563,0][1.18035,-0.517394,-0.032431][-0.76378,-0.637795,-0.0708661][0.580032,0.830563,0][1.89168,-0.650466,0.010203][0.574803,-0.629921,-0.519685][0.576764,0.729976,0][1.88954,-0.650466,0.033247][0.637795,-0.771654,0.0551181][0.580032,0.729976,0][1.88954,-0.650466,0.033247][0.637795,-0.771654,0.0551181][0.580032,0.729976,0][1.17829,-0.517394,-0.010205][-0.677165,-0.519685,0.527559][0.583185,0.830563,0][1.18035,-0.517394,-0.032431][-0.76378,-0.637795,-0.0708661][0.580032,0.830563,0][1.17829,-0.517394,-0.010205][-0.677165,-0.519685,0.527559][0.583185,0.830563,0][1.88954,-0.650466,0.033247][0.637795,-0.771654,0.0551181][0.580032,0.729976,0][1.88748,-0.650466,0.055475][0.472441,-0.629921,0.614173][0.583185,0.729976,0][-1.89166,-0.650466,0.010203][-0.574803,-0.629921,-0.519685][0.576764,0.729976,0][-1.18033,-0.517394,-0.032431][0.76378,-0.637795,-0.0708661][0.580032,0.830563,0][-1.88953,-0.650466,0.033247][-0.637795,-0.771654,0.0551181][0.580032,0.729976,0][-1.18033,-0.517394,-0.032431][0.76378,-0.637795,-0.0708661][0.580032,0.830563,0][-1.89166,-0.650466,0.010203][-0.574803,-0.629921,-0.519685][0.576764,0.729976,0][-1.18247,-0.517394,-0.055475][0.566929,-0.519685,-0.645669][0.576764,0.830563,0][-1.17827,-0.517394,-0.010205][0.677165,-0.519685,0.527559][0.583185,0.830563,0][-1.88953,-0.650466,0.033247][-0.637795,-0.771654,0.0551181][0.580032,0.729976,0][-1.18033,-0.517394,-0.032431][0.76378,-0.637795,-0.0708661][0.580032,0.830563,0][-1.88953,-0.650466,0.033247][-0.637795,-0.771654,0.0551181][0.580032,0.729976,0][-1.17827,-0.517394,-0.010205][0.677165,-0.519685,0.527559][0.583185,0.830563,0][-1.88747,-0.650466,0.055475][-0.472441,-0.629921,0.614173][0.583185,0.729976,0][1.89168,-0.525402,0.010203][0.685039,0.503937,-0.527559][0.433891,0.733977,0][1.18248,-0.517394,-0.055475][-0.566929,-0.519685,-0.645669][0.455477,0.831788,0][1.18248,-0.360472,-0.055475][-0.456693,0.645669,-0.614173][0.433891,0.836808,0][1.18248,-0.517394,-0.055475][-0.566929,-0.519685,-0.645669][0.455477,0.831788,0][1.89168,-0.525402,0.010203][0.685039,0.503937,-0.527559][0.433891,0.733977,0][1.89168,-0.650466,0.010203][0.574803,-0.629921,-0.519685][0.451094,0.729976,0][1.89168,0.049684,0.010203][0.629921,0.574803,-0.519685][0.516096,0.730352,0][1.18248,-0.076506,-0.055475][-0.535433,-0.559055,-0.629921][0.535504,0.830215,0][1.18248,0.060936,-0.055475][-0.519685,0.582677,-0.629921][0.516096,0.830523,0][1.18248,-0.076506,-0.055475][-0.535433,-0.559055,-0.629921][0.535504,0.830215,0][1.89168,0.049684,0.010203][0.629921,0.574803,-0.519685][0.516096,0.730352,0][1.89168,-0.11823,0.010203][0.614173,-0.598425,-0.519685][0.539807,0.729976,0][1.18248,0.532214,-0.055475][-0.559055,0.519685,-0.637795][0.496579,0.734346,0][1.89168,0.650482,0.010203][0.582677,0.629921,-0.519685][0.490768,0.835722,0][1.89168,0.552444,0.010203][0.685039,-0.503937,-0.527559][0.477264,0.832666,0][1.18248,0.532214,-0.055475][-0.559055,0.519685,-0.637795][0.496579,0.734346,0][1.89168,0.552444,0.010203][0.685039,-0.503937,-0.527559][0.477264,0.832666,0][1.18248,0.39199,-0.055475][-0.456693,-0.645669,-0.614173][0.477264,0.729976,0][-1.89166,-0.525402,0.010203][-0.685039,0.503937,-0.527559][0.433891,0.733977,0][-1.18247,-0.517394,-0.055475][0.566929,-0.519685,-0.645669][0.455477,0.831788,0][-1.89166,-0.650466,0.010203][-0.574803,-0.629921,-0.519685][0.451094,0.729976,0][-1.18247,-0.517394,-0.055475][0.566929,-0.519685,-0.645669][0.455477,0.831788,0][-1.89166,-0.525402,0.010203][-0.685039,0.503937,-0.527559][0.433891,0.733977,0][-1.18247,-0.360472,-0.055475][0.456693,0.645669,-0.614173][0.433891,0.836808,0][-1.89166,0.049684,0.010203][-0.629921,0.574803,-0.519685][0.516096,0.730352,0][-1.18247,-0.076506,-0.055475][0.535433,-0.559055,-0.629921][0.535504,0.830215,0][-1.89166,-0.11823,0.010203][-0.614173,-0.598425,-0.519685][0.539807,0.729976,0][-1.18247,-0.076506,-0.055475][0.535433,-0.559055,-0.629921][0.535504,0.830215,0][-1.89166,0.049684,0.010203][-0.629921,0.574803,-0.519685][0.516096,0.730352,0][-1.18247,0.060936,-0.055475][0.519685,0.582677,-0.629921][0.516096,0.830523,0][-1.18247,0.532214,-0.055475][0.559055,0.519685,-0.637795][0.496579,0.734346,0][-1.89166,0.552444,0.010203][-0.685039,-0.503937,-0.527559][0.477264,0.832666,0][-1.89166,0.650482,0.010203][-0.582677,0.629921,-0.519685][0.490768,0.835722,0][-1.18247,0.39199,-0.055475][0.456693,-0.645669,-0.614173][0.477264,0.729976,0][-1.89166,0.552444,0.010203][-0.685039,-0.503937,-0.527559][0.477264,0.832666,0][-1.18247,0.532214,-0.055475][0.559055,0.519685,-0.637795][0.496579,0.734346,0][1.88954,-0.118232,0.028245][-0.015748,0.779528,-0.629921][0.437013,0.287493,0][1.18035,-0.360472,-0.037433][-0.590551,0.141732,-0.795276][0.39268,0.178518,0][1.18035,-0.076506,-0.037433][-0.669291,0.740157,0.0629921][0.437013,0.175925,0][1.18035,-0.360472,-0.037433][-0.590551,0.141732,-0.795276][0.39268,0.178518,0][1.88954,-0.118232,0.028245][-0.015748,0.779528,-0.629921][0.437013,0.287493,0][1.88954,-0.525402,0.028245][-0.133858,-0.637795,-0.755906][0.373449,0.291223,0][1.18035,0.39199,-0.037433][0.00787402,0.748031,-0.661417][0.618094,0.175925,0][1.88954,0.552444,0.028245][0.629921,0,-0.771654][0.643193,0.287312,0][1.88954,0.049684,0.028245][0.708661,-0.700787,0.110236][0.564572,0.287312,0][1.18035,0.39199,-0.037433][0.00787402,0.748031,-0.661417][0.618094,0.175925,0][1.88954,0.049684,0.028245][0.708661,-0.700787,0.110236][0.564572,0.287312,0][1.18035,0.060936,-0.037433][0.0944882,-0.795276,-0.598425][0.566318,0.175937,0][-1.88953,-0.118232,0.028245][0.015748,0.700787,-0.708661][0.500721,0.179655,0][-1.18033,-0.360472,-0.037433][0.771654,-0.637795,0.00787402][0.456387,0.28863,0][-1.88953,-0.525402,0.028245][0.149606,-0.700787,-0.692913][0.437157,0.175925,0][-1.18033,-0.360472,-0.037433][0.771654,-0.637795,0.00787402][0.456387,0.28863,0][-1.88953,-0.118232,0.028245][0.015748,0.700787,-0.708661][0.500721,0.179655,0][-1.18033,-0.076506,-0.037433][0.582677,-0.0708661,-0.811024][0.500721,0.291223,0][-1.18033,0.39199,-0.037433][0.590551,-0.133858,-0.795276][0.490678,0.402753,0][-1.88953,0.049684,0.028245][-0.779528,-0.614173,0.102362][0.437157,0.291366,0][-1.88953,0.552444,0.028245][-0.700787,-0.00787402,-0.708661][0.515778,0.291366,0][-1.88953,0.049684,0.028245][-0.779528,-0.614173,0.102362][0.437157,0.291366,0][-1.18033,0.39199,-0.037433][0.590551,-0.133858,-0.795276][0.490678,0.402753,0][-1.18033,0.060936,-0.037433][-0.110236,-0.724409,-0.685039][0.438903,0.402742,0][-1.88953,0.552444,0.028245][-0.700787,-0.00787402,-0.708661][0.599597,0.729976,0][-1.18033,0.39199,-0.032431][0.543307,0.519685,0.661417][0.599597,0.830563,0][-1.18033,0.39199,-0.037433][0.590551,-0.133858,-0.795276][0.599597,0.830563,0][-1.18033,0.39199,-0.032431][0.543307,0.519685,0.661417][0.599597,0.830563,0][-1.88953,0.552444,0.028245][-0.700787,-0.00787402,-0.708661][0.599597,0.729976,0][-1.88953,0.552444,0.033247][-0.480315,0.708661,0.519685][0.599597,0.729976,0][1.88954,0.552444,0.028245][0.629921,0,-0.771654][0.599597,0.729976,0][1.18035,0.39199,-0.037433][0.00787402,0.748031,-0.661417][0.599597,0.830563,0][1.18035,0.39199,-0.032431][-0.661417,0.606299,0.440945][0.599597,0.830563,0][1.88954,0.552444,0.028245][0.629921,0,-0.771654][0.599597,0.729976,0][1.18035,0.39199,-0.032431][-0.661417,0.606299,0.440945][0.599597,0.830563,0][1.88954,0.552444,0.033247][0.417323,0.622047,0.661417][0.599597,0.729976,0][-1.88953,-0.525402,0.028245][0.149606,-0.700787,-0.692913][0.586554,0.729976,0][-1.18033,-0.360472,-0.037433][0.771654,-0.637795,0.00787402][0.586554,0.830563,0][-1.18033,-0.360472,-0.032431][0.850394,-0.322835,0.417323][0.586554,0.830563,0][-1.88953,-0.525402,0.028245][0.149606,-0.700787,-0.692913][0.586554,0.729976,0][-1.18033,-0.360472,-0.032431][0.850394,-0.322835,0.417323][0.586554,0.830563,0][-1.88953,-0.525402,0.033247][-0.417323,-0.622047,0.661417][0.586554,0.729976,0][1.88954,-0.525402,0.028245][-0.133858,-0.637795,-0.755906][0.586554,0.729976,0][1.18035,-0.360472,-0.032431][-0.551181,-0.519685,0.661417][0.586554,0.830563,0][1.18035,-0.360472,-0.037433][-0.590551,0.141732,-0.795276][0.586554,0.830563,0][1.18035,-0.360472,-0.032431][-0.551181,-0.519685,0.661417][0.586554,0.830563,0][1.88954,-0.525402,0.028245][-0.133858,-0.637795,-0.755906][0.586554,0.729976,0][1.88954,-0.525402,0.033247][0.480315,-0.708661,0.519685][0.586554,0.729976,0][1.89168,0.049684,0.010203][0.629921,0.574803,-0.519685][0.56372,0.729976,0][1.18248,0.060936,-0.055475][-0.519685,0.582677,-0.629921][0.56372,0.830563,0][1.18035,0.060936,-0.032431][-0.629921,0.669291,-0.401575][0.566989,0.830563,0][1.89168,0.049684,0.010203][0.629921,0.574803,-0.519685][0.56372,0.729976,0][1.18035,0.060936,-0.032431][-0.629921,0.669291,-0.401575][0.566989,0.830563,0][1.88954,0.049684,0.033247][0.700787,0.661417,-0.267717][0.566989,0.729976,0][1.88954,0.049684,0.033247][0.700787,0.661417,-0.267717][0.566989,0.729976,0][1.18035,0.060936,-0.032431][-0.629921,0.669291,-0.401575][0.566989,0.830563,0][1.17829,0.060936,-0.010205][-0.622047,0.582677,0.519685][0.570141,0.830563,0][1.17829,0.060936,-0.010205][-0.622047,0.582677,0.519685][0.570141,0.830563,0][1.88748,0.049684,0.055475][0.527559,0.574803,0.629921][0.570141,0.729976,0][1.88954,0.049684,0.033247][0.700787,0.661417,-0.267717][0.566989,0.729976,0][-1.89166,0.049684,0.010203][-0.629921,0.574803,-0.519685][0.56372,0.729976,0][-1.18033,0.060936,-0.032431][0.629921,0.669291,-0.401575][0.566989,0.830563,0][-1.18247,0.060936,-0.055475][0.519685,0.582677,-0.629921][0.56372,0.830563,0][-1.88953,0.049684,0.033247][-0.700787,0.661417,-0.267717][0.566989,0.729976,0][-1.18033,0.060936,-0.032431][0.629921,0.669291,-0.401575][0.566989,0.830563,0][-1.89166,0.049684,0.010203][-0.629921,0.574803,-0.519685][0.56372,0.729976,0][-1.18033,0.060936,-0.032431][0.629921,0.669291,-0.401575][0.566989,0.830563,0][-1.88953,0.049684,0.033247][-0.700787,0.661417,-0.267717][0.566989,0.729976,0][-1.17827,0.060936,-0.010205][0.622047,0.582677,0.519685][0.570141,0.830563,0][-1.88747,0.049684,0.055475][-0.527559,0.574803,0.629921][0.570141,0.729976,0][-1.17827,0.060936,-0.010205][0.622047,0.582677,0.519685][0.570141,0.830563,0][-1.88953,0.049684,0.033247][-0.700787,0.661417,-0.267717][0.566989,0.729976,0][1.89168,-0.11823,0.010203][0.614173,-0.598425,-0.519685][0.570242,0.729976,0][1.18035,-0.076506,-0.032431][-0.661417,-0.653543,-0.377953][0.573511,0.830563,0][1.18248,-0.076506,-0.055475][-0.535433,-0.559055,-0.629921][0.570242,0.830563,0][1.18035,-0.076506,-0.032431][-0.661417,-0.653543,-0.377953][0.573511,0.830563,0][1.89168,-0.11823,0.010203][0.614173,-0.598425,-0.519685][0.570242,0.729976,0][1.88954,-0.118232,0.033247][0.669291,-0.677165,-0.291339][0.573511,0.729976,0][1.88954,-0.118232,0.033247][0.669291,-0.677165,-0.291339][0.573511,0.729976,0][1.17829,-0.076506,-0.010205][-0.645669,-0.559055,0.519685][0.576663,0.830563,0][1.18035,-0.076506,-0.032431][-0.661417,-0.653543,-0.377953][0.573511,0.830563,0][1.17829,-0.076506,-0.010205][-0.645669,-0.559055,0.519685][0.576663,0.830563,0][1.88954,-0.118232,0.033247][0.669291,-0.677165,-0.291339][0.573511,0.729976,0][1.88748,-0.118232,0.055475][0.503937,-0.598425,0.622047][0.576663,0.729976,0][-1.89166,-0.11823,0.010203][-0.614173,-0.598425,-0.519685][0.570242,0.729976,0][-1.18033,-0.076506,-0.032431][0.661417,-0.653543,-0.377953][0.573511,0.830563,0][-1.88953,-0.118232,0.033247][-0.669291,-0.677165,-0.291339][0.573511,0.729976,0][-1.18033,-0.076506,-0.032431][0.661417,-0.653543,-0.377953][0.573511,0.830563,0][-1.89166,-0.11823,0.010203][-0.614173,-0.598425,-0.519685][0.570242,0.729976,0][-1.18247,-0.076506,-0.055475][0.535433,-0.559055,-0.629921][0.570242,0.830563,0][-1.17827,-0.076506,-0.010205][0.645669,-0.559055,0.519685][0.576663,0.830563,0][-1.88953,-0.118232,0.033247][-0.669291,-0.677165,-0.291339][0.573511,0.729976,0][-1.18033,-0.076506,-0.032431][0.661417,-0.653543,-0.377953][0.573511,0.830563,0][-1.88953,-0.118232,0.033247][-0.669291,-0.677165,-0.291339][0.573511,0.729976,0][-1.17827,-0.076506,-0.010205][0.645669,-0.559055,0.519685][0.576663,0.830563,0][-1.88747,-0.118232,0.055475][-0.503937,-0.598425,0.622047][0.576663,0.729976,0][1.88954,-0.118232,0.028245][-0.015748,0.779528,-0.629921][0.573511,0.729976,0][1.18035,-0.076506,-0.037433][-0.669291,0.740157,0.0629921][0.573511,0.830563,0][1.18035,-0.076506,-0.032431][-0.566929,0.685039,0.456693][0.573511,0.830563,0][1.88954,-0.118232,0.028245][-0.015748,0.779528,-0.629921][0.573511,0.729976,0][1.18035,-0.076506,-0.032431][-0.566929,0.685039,0.456693][0.573511,0.830563,0][1.88954,-0.118232,0.033247][0.456693,0.559055,0.692913][0.573511,0.729976,0][-1.88953,-0.118232,0.028245][0.015748,0.700787,-0.708661][0.573511,0.729976,0][-1.18033,-0.076506,-0.032431][0.503937,0.590551,0.629921][0.573511,0.830563,0][-1.18033,-0.076506,-0.037433][0.582677,-0.0708661,-0.811024][0.573511,0.830563,0][-1.18033,-0.076506,-0.032431][0.503937,0.590551,0.629921][0.573511,0.830563,0][-1.88953,-0.118232,0.028245][0.015748,0.700787,-0.708661][0.573511,0.729976,0][-1.88953,-0.118232,0.033247][-0.574803,0.637795,0.511811][0.573511,0.729976,0][1.88954,0.049684,0.028245][0.708661,-0.700787,0.110236][0.566989,0.729976,0][1.18035,0.060936,-0.032431][-0.519685,-0.566929,0.637795][0.566989,0.830563,0][1.18035,0.060936,-0.037433][0.0944882,-0.795276,-0.598425][0.566989,0.830563,0][1.18035,0.060936,-0.032431][-0.519685,-0.566929,0.637795][0.566989,0.830563,0][1.88954,0.049684,0.028245][0.708661,-0.700787,0.110236][0.566989,0.729976,0][1.88954,0.049684,0.033247][0.551181,-0.661417,0.511811][0.566989,0.729976,0][-1.88953,0.049684,0.028245][-0.779528,-0.614173,0.102362][0.566989,0.729976,0][-1.18033,0.060936,-0.037433][-0.110236,-0.724409,-0.685039][0.566989,0.830563,0][-1.18033,0.060936,-0.032431][0.787402,-0.456693,0.417323][0.566989,0.830563,0][-1.88953,0.049684,0.028245][-0.779528,-0.614173,0.102362][0.566989,0.729976,0][-1.18033,0.060936,-0.032431][0.787402,-0.456693,0.417323][0.566989,0.830563,0][-1.88953,0.049684,0.033247][-0.448819,-0.574803,0.685039][0.566989,0.729976,0][1.89168,-0.525402,0.010203][0.685039,0.503937,-0.527559][0.583285,0.729976,0][1.18248,-0.360472,-0.055475][-0.456693,0.645669,-0.614173][0.583285,0.830563,0][1.18035,-0.360472,-0.032431][-0.527559,0.708661,-0.464567][0.586554,0.830563,0][1.89168,-0.525402,0.010203][0.685039,0.503937,-0.527559][0.583285,0.729976,0][1.18035,-0.360472,-0.032431][-0.527559,0.708661,-0.464567][0.586554,0.830563,0][1.88954,-0.525402,0.033247][0.779528,0.598425,-0.188976][0.586554,0.729976,0][1.88954,-0.525402,0.033247][0.779528,0.598425,-0.188976][0.586554,0.729976,0][1.18035,-0.360472,-0.032431][-0.527559,0.708661,-0.464567][0.586554,0.830563,0][1.17829,-0.360472,-0.010205][-0.566929,0.645669,0.519685][0.589707,0.830563,0][1.17829,-0.360472,-0.010205][-0.566929,0.645669,0.519685][0.589707,0.830563,0][1.88748,-0.525402,0.055475][0.574803,0.503937,0.645669][0.589707,0.729976,0][1.88954,-0.525402,0.033247][0.779528,0.598425,-0.188976][0.586554,0.729976,0][-1.89166,-0.525402,0.010203][-0.685039,0.503937,-0.527559][0.583285,0.729976,0][-1.18033,-0.360472,-0.032431][0.527559,0.708661,-0.464567][0.586554,0.830563,0][-1.18247,-0.360472,-0.055475][0.456693,0.645669,-0.614173][0.583285,0.830563,0][-1.88953,-0.525402,0.033247][-0.779528,0.598425,-0.188976][0.586554,0.729976,0][-1.18033,-0.360472,-0.032431][0.527559,0.708661,-0.464567][0.586554,0.830563,0][-1.89166,-0.525402,0.010203][-0.685039,0.503937,-0.527559][0.583285,0.729976,0][-1.18033,-0.360472,-0.032431][0.527559,0.708661,-0.464567][0.586554,0.830563,0][-1.88953,-0.525402,0.033247][-0.779528,0.598425,-0.188976][0.586554,0.729976,0][-1.17827,-0.360472,-0.010205][0.566929,0.645669,0.519685][0.589707,0.830563,0][-1.88747,-0.525402,0.055475][-0.574803,0.503937,0.645669][0.589707,0.729976,0][-1.17827,-0.360472,-0.010205][0.566929,0.645669,0.519685][0.589707,0.830563,0][-1.88953,-0.525402,0.033247][-0.779528,0.598425,-0.188976][0.586554,0.729976,0][1.88748,0.049684,0.055475][0.527559,0.574803,0.629921][0.539908,0.730352,0][1.17829,-0.076506,-0.010205][-0.645669,-0.559055,0.519685][0.559316,0.830215,0][1.88748,-0.118232,0.055475][0.503937,-0.598425,0.622047][0.56362,0.729976,0][1.17829,-0.076506,-0.010205][-0.645669,-0.559055,0.519685][0.559316,0.830215,0][1.88748,0.049684,0.055475][0.527559,0.574803,0.629921][0.539908,0.730352,0][1.17829,0.060936,-0.010205][-0.622047,0.582677,0.519685][0.539908,0.830523,0][1.88748,0.552444,0.055475][0.574803,-0.503937,0.645669][0.49668,0.832666,0][1.17829,0.532214,-0.010203][-0.669291,0.519685,0.527559][0.515995,0.734346,0][1.17829,0.39199,-0.010203][-0.566929,-0.645669,0.519685][0.49668,0.729976,0][1.88748,0.650482,0.055475][0.480315,0.629921,0.614173][0.510184,0.835721,0][1.17829,0.532214,-0.010203][-0.669291,0.519685,0.527559][0.515995,0.734346,0][1.88748,0.552444,0.055475][0.574803,-0.503937,0.645669][0.49668,0.832666,0][1.17829,-0.517394,-0.010205][-0.677165,-0.519685,0.527559][0.477163,0.831788,0][1.88748,-0.525402,0.055475][0.574803,0.503937,0.645669][0.455577,0.733977,0][1.17829,-0.360472,-0.010205][-0.566929,0.645669,0.519685][0.455577,0.836808,0][1.88748,-0.525402,0.055475][0.574803,0.503937,0.645669][0.455577,0.733977,0][1.17829,-0.517394,-0.010205][-0.677165,-0.519685,0.527559][0.477163,0.831788,0][1.88748,-0.650466,0.055475][0.472441,-0.629921,0.614173][0.472781,0.729976,0][-1.17827,-0.076506,-0.010205][0.645669,-0.559055,0.519685][0.559316,0.830215,0][-1.88747,0.049684,0.055475][-0.527559,0.574803,0.629921][0.539908,0.730352,0][-1.88747,-0.118232,0.055475][-0.503937,-0.598425,0.622047][0.56362,0.729976,0][-1.88747,0.049684,0.055475][-0.527559,0.574803,0.629921][0.539908,0.730352,0][-1.17827,-0.076506,-0.010205][0.645669,-0.559055,0.519685][0.559316,0.830215,0][-1.17827,0.060936,-0.010205][0.622047,0.582677,0.519685][0.539908,0.830523,0][-1.88747,0.552444,0.055475][-0.574803,-0.503937,0.645669][0.49668,0.832666,0][-1.17827,0.39199,-0.010203][0.566929,-0.645669,0.519685][0.49668,0.729976,0][-1.17827,0.532214,-0.010203][0.669291,0.519685,0.527559][0.515995,0.734346,0][-1.88747,0.552444,0.055475][-0.574803,-0.503937,0.645669][0.49668,0.832666,0][-1.17827,0.532214,-0.010203][0.669291,0.519685,0.527559][0.515995,0.734346,0][-1.88747,0.650482,0.055475][-0.480315,0.629921,0.614173][0.510184,0.835721,0][-1.17827,-0.517394,-0.010205][0.677165,-0.519685,0.527559][0.477163,0.831788,0][-1.88747,-0.525402,0.055475][-0.574803,0.503937,0.645669][0.455577,0.733977,0][-1.88747,-0.650466,0.055475][-0.472441,-0.629921,0.614173][0.472781,0.729976,0][-1.88747,-0.525402,0.055475][-0.574803,0.503937,0.645669][0.455577,0.733977,0][-1.17827,-0.517394,-0.010205][0.677165,-0.519685,0.527559][0.477163,0.831788,0][-1.17827,-0.360472,-0.010205][0.566929,0.645669,0.519685][0.455577,0.836808,0][1.89168,0.552444,0.010203][0.685039,-0.503937,-0.527559][0.596329,0.729976,0][1.18035,0.39199,-0.032431][-0.527559,-0.708661,-0.464567][0.599597,0.830563,0][1.18248,0.39199,-0.055475][-0.456693,-0.645669,-0.614173][0.596329,0.830563,0][1.18035,0.39199,-0.032431][-0.527559,-0.708661,-0.464567][0.599597,0.830563,0][1.89168,0.552444,0.010203][0.685039,-0.503937,-0.527559][0.596329,0.729976,0][1.88954,0.552444,0.033247][0.771654,-0.598425,-0.19685][0.599597,0.729976,0][1.88954,0.552444,0.033247][0.771654,-0.598425,-0.19685][0.599597,0.729976,0][1.17829,0.39199,-0.010203][-0.566929,-0.645669,0.519685][0.60275,0.830563,0][1.18035,0.39199,-0.032431][-0.527559,-0.708661,-0.464567][0.599597,0.830563,0][1.17829,0.39199,-0.010203][-0.566929,-0.645669,0.519685][0.60275,0.830563,0][1.88954,0.552444,0.033247][0.771654,-0.598425,-0.19685][0.599597,0.729976,0][1.88748,0.552444,0.055475][0.574803,-0.503937,0.645669][0.60275,0.729976,0][-1.89166,0.552444,0.010203][-0.685039,-0.503937,-0.527559][0.596329,0.729976,0][-1.18033,0.39199,-0.032431][0.527559,-0.708661,-0.464567][0.599597,0.830563,0][-1.88953,0.552444,0.033247][-0.771654,-0.598425,-0.19685][0.599597,0.729976,0][-1.18033,0.39199,-0.032431][0.527559,-0.708661,-0.464567][0.599597,0.830563,0][-1.89166,0.552444,0.010203][-0.685039,-0.503937,-0.527559][0.596329,0.729976,0][-1.18247,0.39199,-0.055475][0.456693,-0.645669,-0.614173][0.596329,0.830563,0][-1.17827,0.39199,-0.010203][0.566929,-0.645669,0.519685][0.60275,0.830563,0][-1.88953,0.552444,0.033247][-0.771654,-0.598425,-0.19685][0.599597,0.729976,0][-1.18033,0.39199,-0.032431][0.527559,-0.708661,-0.464567][0.599597,0.830563,0][-1.88953,0.552444,0.033247][-0.771654,-0.598425,-0.19685][0.599597,0.729976,0][-1.17827,0.39199,-0.010203][0.566929,-0.645669,0.519685][0.60275,0.830563,0][-1.88747,0.552444,0.055475][-0.574803,-0.503937,0.645669][0.60275,0.729976,0][1.88954,0.552444,0.033247][0.417323,0.622047,0.661417][0.673306,0.291366,0][1.18035,0.39199,-0.032431][-0.661417,0.606299,0.440945][0.648207,0.402753,0][1.88954,0.049684,0.033247][0.551181,-0.661417,0.511811][0.594685,0.291366,0][1.18035,0.060936,-0.032431][-0.519685,-0.566929,0.637795][0.596431,0.402741,0][1.88954,0.049684,0.033247][0.551181,-0.661417,0.511811][0.594685,0.291366,0][1.18035,0.39199,-0.032431][-0.661417,0.606299,0.440945][0.648207,0.402753,0][1.18035,-0.360472,-0.032431][-0.551181,-0.519685,0.661417][0.417783,0.29396,0][1.88954,-0.525402,0.033247][0.480315,-0.708661,0.519685][0.437013,0.406664,0][1.88954,-0.118232,0.033247][0.456693,0.559055,0.692913][0.373449,0.402935,0][1.18035,-0.360472,-0.032431][-0.551181,-0.519685,0.661417][0.417783,0.29396,0][1.88954,-0.118232,0.033247][0.456693,0.559055,0.692913][0.373449,0.402935,0][1.18035,-0.076506,-0.032431][-0.566929,0.685039,0.456693][0.373449,0.291366,0][-1.88953,0.049684,0.033247][-0.448819,-0.574803,0.685039][0.515921,0.402753,0][-1.18033,0.39199,-0.032431][0.543307,0.519685,0.661417][0.569442,0.291366,0][-1.88953,0.552444,0.033247][-0.480315,0.708661,0.519685][0.594542,0.402753,0][-1.18033,0.39199,-0.032431][0.543307,0.519685,0.661417][0.569442,0.291366,0][-1.88953,0.049684,0.033247][-0.448819,-0.574803,0.685039][0.515921,0.402753,0][-1.18033,0.060936,-0.032431][0.787402,-0.456693,0.417323][0.517667,0.291378,0][-1.18033,-0.360472,-0.032431][0.850394,-0.322835,0.417323][0.545198,0.28863,0][-1.88953,-0.118232,0.033247][-0.574803,0.637795,0.511811][0.500865,0.179655,0][-1.88953,-0.525402,0.033247][-0.417323,-0.622047,0.661417][0.564429,0.175925,0][-1.88953,-0.118232,0.033247][-0.574803,0.637795,0.511811][0.500865,0.179655,0][-1.18033,-0.360472,-0.032431][0.850394,-0.322835,0.417323][0.545198,0.28863,0][-1.18033,-0.076506,-0.032431][0.503937,0.590551,0.629921][0.500865,0.291223,0][1.18248,0.060936,-0.055475][-0.519685,0.582677,-0.629921][0.546302,0.830624,0][1.18248,-0.076506,-0.055475][-0.535433,-0.559055,-0.629921][0.546302,0.850035,0][1.18035,-0.076506,-0.032431][-0.661417,-0.653543,-0.377953][0.543047,0.850035,0][1.18248,0.060936,-0.055475][-0.519685,0.582677,-0.629921][0.546302,0.830624,0][1.18035,-0.076506,-0.032431][-0.661417,-0.653543,-0.377953][0.543047,0.850035,0][1.18035,0.060936,-0.032431][-0.629921,0.669291,-0.401575][0.543047,0.830624,0][1.17829,-0.076506,-0.010205][-0.645669,-0.559055,0.519685][0.539908,0.850035,0][1.18035,0.060936,-0.032431][-0.629921,0.669291,-0.401575][0.543047,0.830624,0][1.18035,-0.076506,-0.032431][-0.661417,-0.653543,-0.377953][0.543047,0.850035,0][1.18035,0.060936,-0.032431][-0.629921,0.669291,-0.401575][0.543047,0.830624,0][1.17829,-0.076506,-0.010205][-0.645669,-0.559055,0.519685][0.539908,0.850035,0][1.17829,0.060936,-0.010205][-0.622047,0.582677,0.519685][0.539908,0.830624,0][1.18248,-0.360472,-0.055475][-0.456693,0.645669,-0.614173][0.528984,0.830624,0][1.18248,-0.517394,-0.055475][-0.566929,-0.519685,-0.645669][0.528984,0.852786,0][1.18035,-0.517394,-0.032431][-0.76378,-0.637795,-0.0708661][0.525729,0.852786,0][1.18248,-0.360472,-0.055475][-0.456693,0.645669,-0.614173][0.528984,0.830624,0][1.18035,-0.517394,-0.032431][-0.76378,-0.637795,-0.0708661][0.525729,0.852786,0][1.18035,-0.360472,-0.032431][-0.527559,0.708661,-0.464567][0.525729,0.830624,0][1.18035,-0.360472,-0.032431][-0.527559,0.708661,-0.464567][0.525729,0.830624,0][1.18035,-0.517394,-0.032431][-0.76378,-0.637795,-0.0708661][0.525729,0.852786,0][1.17829,-0.517394,-0.010205][-0.677165,-0.519685,0.527559][0.52259,0.852786,0][1.18035,-0.360472,-0.032431][-0.527559,0.708661,-0.464567][0.525729,0.830624,0][1.17829,-0.517394,-0.010205][-0.677165,-0.519685,0.527559][0.52259,0.852786,0][1.17829,-0.360472,-0.010205][-0.566929,0.645669,0.519685][0.52259,0.830624,0][1.18248,0.532214,-0.055475][-0.559055,0.519685,-0.637795][0.535478,0.830624,0][1.18248,0.39199,-0.055475][-0.456693,-0.645669,-0.614173][0.535478,0.850428,0][1.18035,0.39199,-0.032431][-0.527559,-0.708661,-0.464567][0.532224,0.850428,0][1.18248,0.532214,-0.055475][-0.559055,0.519685,-0.637795][0.535478,0.830624,0][1.18035,0.39199,-0.032431][-0.527559,-0.708661,-0.464567][0.532224,0.850428,0][1.18035,0.532214,-0.032431][-0.755906,0.645669,-0.0708661][0.532224,0.830624,0][1.17829,0.39199,-0.010203][-0.566929,-0.645669,0.519685][0.529085,0.850428,0][1.18035,0.532214,-0.032431][-0.755906,0.645669,-0.0708661][0.532224,0.830624,0][1.18035,0.39199,-0.032431][-0.527559,-0.708661,-0.464567][0.532224,0.850428,0][1.18035,0.532214,-0.032431][-0.755906,0.645669,-0.0708661][0.532224,0.830624,0][1.17829,0.39199,-0.010203][-0.566929,-0.645669,0.519685][0.529085,0.850428,0][1.17829,0.532214,-0.010203][-0.669291,0.519685,0.527559][0.529085,0.830624,0][-1.18247,0.060936,-0.055475][0.519685,0.582677,-0.629921][0.546302,0.830624,0][-1.18033,-0.076506,-0.032431][0.661417,-0.653543,-0.377953][0.543047,0.850035,0][-1.18247,-0.076506,-0.055475][0.535433,-0.559055,-0.629921][0.546302,0.850035,0][-1.18033,-0.076506,-0.032431][0.661417,-0.653543,-0.377953][0.543047,0.850035,0][-1.18247,0.060936,-0.055475][0.519685,0.582677,-0.629921][0.546302,0.830624,0][-1.18033,0.060936,-0.032431][0.629921,0.669291,-0.401575][0.543047,0.830624,0][-1.18033,-0.076506,-0.032431][0.661417,-0.653543,-0.377953][0.543047,0.850035,0][-1.18033,0.060936,-0.032431][0.629921,0.669291,-0.401575][0.543047,0.830624,0][-1.17827,-0.076506,-0.010205][0.645669,-0.559055,0.519685][0.539908,0.850035,0][-1.17827,0.060936,-0.010205][0.622047,0.582677,0.519685][0.539908,0.830624,0][-1.17827,-0.076506,-0.010205][0.645669,-0.559055,0.519685][0.539908,0.850035,0][-1.18033,0.060936,-0.032431][0.629921,0.669291,-0.401575][0.543047,0.830624,0][-1.18247,-0.360472,-0.055475][0.456693,0.645669,-0.614173][0.528984,0.830624,0][-1.18033,-0.517394,-0.032431][0.76378,-0.637795,-0.0708661][0.525729,0.852786,0][-1.18247,-0.517394,-0.055475][0.566929,-0.519685,-0.645669][0.528984,0.852786,0][-1.18033,-0.517394,-0.032431][0.76378,-0.637795,-0.0708661][0.525729,0.852786,0][-1.18247,-0.360472,-0.055475][0.456693,0.645669,-0.614173][0.528984,0.830624,0][-1.18033,-0.360472,-0.032431][0.527559,0.708661,-0.464567][0.525729,0.830624,0][-1.18033,-0.517394,-0.032431][0.76378,-0.637795,-0.0708661][0.525729,0.852786,0][-1.18033,-0.360472,-0.032431][0.527559,0.708661,-0.464567][0.525729,0.830624,0][-1.17827,-0.517394,-0.010205][0.677165,-0.519685,0.527559][0.52259,0.852786,0][-1.17827,-0.360472,-0.010205][0.566929,0.645669,0.519685][0.52259,0.830624,0][-1.17827,-0.517394,-0.010205][0.677165,-0.519685,0.527559][0.52259,0.852786,0][-1.18033,-0.360472,-0.032431][0.527559,0.708661,-0.464567][0.525729,0.830624,0][-1.18247,0.532214,-0.055475][0.559055,0.519685,-0.637795][0.535478,0.830624,0][-1.18033,0.39199,-0.032431][0.527559,-0.708661,-0.464567][0.532224,0.850428,0][-1.18247,0.39199,-0.055475][0.456693,-0.645669,-0.614173][0.535478,0.850428,0][-1.18033,0.39199,-0.032431][0.527559,-0.708661,-0.464567][0.532224,0.850428,0][-1.18247,0.532214,-0.055475][0.559055,0.519685,-0.637795][0.535478,0.830624,0][-1.18033,0.532214,-0.032431][0.755906,0.645669,-0.0708661][0.532224,0.830624,0][-1.18033,0.39199,-0.032431][0.527559,-0.708661,-0.464567][0.532224,0.850428,0][-1.18033,0.532214,-0.032431][0.755906,0.645669,-0.0708661][0.532224,0.830624,0][-1.17827,0.39199,-0.010203][0.566929,-0.645669,0.519685][0.529085,0.850428,0][-1.17827,0.532214,-0.010203][0.669291,0.519685,0.527559][0.529085,0.830624,0][-1.17827,0.39199,-0.010203][0.566929,-0.645669,0.519685][0.529085,0.850428,0][-1.18033,0.532214,-0.032431][0.755906,0.645669,-0.0708661][0.532224,0.830624,0][-1.18033,0.060936,-0.037433][-0.110236,-0.724409,-0.685039][0,0,0][-1.18033,0.39199,-0.037433][0.590551,-0.133858,-0.795276][0,0,0][-1.18033,0.39199,-0.032431][0.543307,0.519685,0.661417][0,0,0][-1.18033,0.060936,-0.037433][-0.110236,-0.724409,-0.685039][0,0,0][-1.18033,0.39199,-0.032431][0.543307,0.519685,0.661417][0,0,0][-1.18033,0.060936,-0.032431][0.787402,-0.456693,0.417323][0,0,0][-1.18033,-0.360472,-0.037433][0.771654,-0.637795,0.00787402][0,0,0][-1.18033,-0.076506,-0.037433][0.582677,-0.0708661,-0.811024][0,0,0][-1.18033,-0.076506,-0.032431][0.503937,0.590551,0.629921][0,0,0][-1.18033,-0.360472,-0.037433][0.771654,-0.637795,0.00787402][0,0,0][-1.18033,-0.076506,-0.032431][0.503937,0.590551,0.629921][0,0,0][-1.18033,-0.360472,-0.032431][0.850394,-0.322835,0.417323][0,0,0][1.18035,0.39199,-0.037433][0.00787402,0.748031,-0.661417][0,0,0][1.18035,0.060936,-0.037433][0.0944882,-0.795276,-0.598425][0,0,0][1.18035,0.060936,-0.032431][-0.519685,-0.566929,0.637795][0,0,0][1.18035,0.39199,-0.037433][0.00787402,0.748031,-0.661417][0,0,0][1.18035,0.060936,-0.032431][-0.519685,-0.566929,0.637795][0,0,0][1.18035,0.39199,-0.032431][-0.661417,0.606299,0.440945][0,0,0][1.18035,-0.076506,-0.037433][-0.669291,0.740157,0.0629921][0,0,0][1.18035,-0.360472,-0.037433][-0.590551,0.141732,-0.795276][0,0,0][1.18035,-0.360472,-0.032431][-0.551181,-0.519685,0.661417][0,0,0][1.18035,-0.076506,-0.037433][-0.669291,0.740157,0.0629921][0,0,0][1.18035,-0.360472,-0.032431][-0.551181,-0.519685,0.661417][0,0,0][1.18035,-0.076506,-0.032431][-0.566929,0.685039,0.456693][0,0,0]