version 1.00
401
[-3.45648,-1.98436,0.046534][-0.811024,-0.574803,0.0866142][0.723661,0.133734,0][-3.46614,-1.95882,0.0963][-0.818898,-0.527559,0.244094][0.725989,0.133734,0][-3.53374,-1.80324,0.00055][-0.96063,-0.267717,0][0.72589,0.141722,0][-3.45648,-1.98436,-0.046528][-0.811024,-0.574803,-0.0866142][0.752277,0.146551,0][-3.45414,-1.99056,4e-06][-0.811024,-0.582677,0][0.750357,0.146374,0][-3.53374,-1.80324,0.00055][-0.96063,-0.267717,0][0.752277,0.138251,0][-3.45414,-1.99056,4e-06][-0.811024,-0.582677,0][0.750357,0.146374,0][-3.45648,-1.98436,0.046534][-0.811024,-0.574803,0.0866142][0.748565,0.145663,0][-3.53374,-1.80324,0.00055][-0.96063,-0.267717,0][0.752277,0.138251,0][-3.48366,-1.91257,-0.123092][-0.826772,-0.370079,-0.417323][0.71935,0.136064,0][-3.46614,-1.95882,-0.096294][-0.818898,-0.519685,-0.244094][0.720891,0.134345,0][-3.53374,-1.80324,0.00055][-0.96063,-0.267717,0][0.723138,0.142034,0][-3.46614,-1.95882,-0.096294][-0.818898,-0.519685,-0.244094][0.720891,0.134345,0][-3.45648,-1.98436,-0.046528][-0.811024,-0.574803,-0.0866142][0.723138,0.133734,0][-3.53374,-1.80324,0.00055][-0.96063,-0.267717,0][0.723138,0.142034,0][-3.46614,-1.95882,0.0963][-0.818898,-0.527559,0.244094][0.748042,0.100224,0][-3.48366,-1.91257,0.123098][-0.826772,-0.370079,0.417323][0.746086,0.099001,0][-3.53374,-1.80324,0.00055][-0.96063,-0.267717,0][0.748042,0.092236,0][-3.50968,-1.84387,-0.123092][-0.818898,-0.0787402,-0.566929][0.809444,0.080993,0][-3.48366,-1.91257,-0.123092][-0.826772,-0.370079,-0.417323][0.811608,0.078897,0][-3.53374,-1.80324,0.00055][-0.96063,-0.267717,0][0.811608,0.085971,0][-3.48366,-1.91257,0.123098][-0.826772,-0.370079,0.417323][0.725816,0.149287,0][-3.50968,-1.84387,0.123098][-0.818898,-0.0787402,0.566929][0.723661,0.147182,0][-3.53374,-1.80324,0.00055][-0.96063,-0.267717,0][0.725816,0.142246,0][-3.52718,-1.79763,-0.096294][-0.771654,0.393701,-0.503937][0.746086,0.102487,0][-3.50968,-1.84387,-0.123092][-0.818898,-0.0787402,-0.566929][0.747601,0.100748,0][-3.53374,-1.80324,0.00055][-0.96063,-0.267717,0][0.747601,0.106176,0][-3.50968,-1.84387,0.123098][-0.818898,-0.0787402,0.566929][0.747601,0.112085,0][-3.52718,-1.79763,0.0963][-0.771654,0.393701,0.503937][0.746091,0.110342,0][-3.53374,-1.80324,0.00055][-0.96063,-0.267717,0][0.747601,0.106699,0][-3.53686,-1.77208,-0.046528][-0.732283,0.637795,-0.259843][0.285246,0.293104,0][-3.52718,-1.79763,-0.096294][-0.771654,0.393701,-0.503937][0.288351,0.287902,0][-3.53374,-1.80324,0.00055][-0.96063,-0.267717,0][0.288351,0.298278,0][-3.52718,-1.79763,0.0963][-0.771654,0.393701,0.503937][0.175752,0.306092,0][-3.53686,-1.77208,0.046534][-0.724409,0.637795,0.259843][0.172645,0.300892,0][-3.53374,-1.80324,0.00055][-0.96063,-0.267717,0][0.175752,0.295833,0][-3.5392,-1.76589,4e-06][-0.716535,0.700787,0][0.746091,0.114052,0][-3.53686,-1.77208,-0.046528][-0.724409,0.637795,-0.251969][0.747369,0.112609,0][-3.53374,-1.80324,0.00055][-0.96063,-0.267717,0][0.747369,0.114928,0][-3.53686,-1.77208,0.046534][-0.724409,0.637795,0.259843][0.746091,0.117379,0][-3.5392,-1.76589,4e-06][-0.716535,0.700787,0][0.746091,0.115451,0][-3.53374,-1.80324,0.00055][-0.96063,-0.267717,0][0.747622,0.115686,0][-2.8774,-2.54876,2e-06][-0.559055,-0.826772,0][0.893265,0.233326,0][-3.45648,-1.98436,-0.046528][-0.811024,-0.574803,-0.0866142][0.887144,0.265975,0][-2.8851,-2.52844,-0.152716][-0.559055,-0.811024,-0.188976][0.886939,0.233326,0][-3.45648,-1.98436,-0.046528][-0.811024,-0.574803,-0.0866142][0.887144,0.265975,0][-2.8774,-2.54876,2e-06][-0.559055,-0.826772,0][0.893265,0.233326,0][-3.45414,-1.99056,4e-06][-0.811024,-0.582677,0][0.889071,0.265974,0][-3.45648,-1.98436,0.046534][-0.811024,-0.574803,0.0866142][0.89991,0.265975,0][-2.8774,-2.54876,2e-06][-0.559055,-0.826772,0][0.893788,0.233326,0][-2.8851,-2.52844,0.15272][-0.559055,-0.811024,0.188976][0.900115,0.233326,0][-2.8774,-2.54876,2e-06][-0.559055,-0.826772,0][0.893788,0.233326,0][-3.45648,-1.98436,0.046534][-0.811024,-0.574803,0.0866142][0.89991,0.265975,0][-3.45414,-1.99056,4e-06][-0.811024,-0.582677,0][0.897982,0.265974,0][-3.45648,-1.98436,0.046534][-0.811024,-0.574803,0.0866142][0.726607,0.100562,0][-2.91684,-2.4446,0.316052][-0.559055,-0.685039,0.464567][0.71935,0.13082,0][-3.46614,-1.95882,0.0963][-0.818898,-0.527559,0.244094][0.724396,0.099834,0][-2.91684,-2.4446,0.316052][-0.559055,-0.685039,0.464567][0.71935,0.13082,0][-3.45648,-1.98436,0.046534][-0.811024,-0.574803,0.0866142][0.726607,0.100562,0][-2.8851,-2.52844,0.15272][-0.559055,-0.811024,0.188976][0.726607,0.133211,0][-2.8851,-2.52844,-0.152716][-0.559055,-0.811024,-0.188976][0.75308,0.171628,0][-3.45648,-1.98436,-0.046528][-0.811024,-0.574803,-0.0866142][0.75308,0.138979,0][-2.91684,-2.4446,-0.316046][-0.559055,-0.685039,-0.464567][0.760337,0.169237,0][-2.91684,-2.4446,-0.316046][-0.559055,-0.685039,-0.464567][0.760337,0.169237,0][-3.45648,-1.98436,-0.046528][-0.811024,-0.574803,-0.0866142][0.75308,0.138979,0][-3.46614,-1.95882,-0.096294][-0.818898,-0.527559,-0.244094][0.755291,0.138251,0][-3.46614,-1.95882,0.0963][-0.818898,-0.527559,0.244094][0.776793,0.232546,0][-2.9743,-2.29282,0.404][-0.527559,-0.393701,0.755906][0.782801,0.205757,0][-3.48366,-1.91257,0.123098][-0.826772,-0.370079,0.425197][0.778624,0.233949,0][-2.9743,-2.29282,0.404][-0.527559,-0.393701,0.755906][0.782801,0.205757,0][-3.46614,-1.95882,0.0963][-0.818898,-0.527559,0.244094][0.776793,0.232546,0][-2.91684,-2.4446,0.316052][-0.559055,-0.685039,0.464567][0.776793,0.201151,0][-3.48366,-1.91257,-0.123092][-0.826772,-0.370079,-0.425197][0.718161,0.23556,0][-2.9743,-2.29282,-0.403994][-0.527559,-0.393701,-0.755906][0.713984,0.207368,0][-3.46614,-1.95882,-0.096294][-0.818898,-0.527559,-0.244094][0.719992,0.234157,0][-2.91684,-2.4446,-0.316046][-0.559055,-0.685039,-0.464567][0.719992,0.202762,0][-3.46614,-1.95882,-0.096294][-0.818898,-0.527559,-0.244094][0.719992,0.234157,0][-2.9743,-2.29282,-0.403994][-0.527559,-0.393701,-0.755906][0.713984,0.207368,0][-2.26442,-2.83866,2e-06][-0.125984,-0.992126,0][0.71751,0.298184,0][-2.8851,-2.52844,-0.152716][-0.559055,-0.811024,-0.188976][0.726559,0.270486,0][-2.27542,-2.80958,-0.218462][-0.141732,-0.952756,-0.267717][0.726559,0.298152,0][-2.8851,-2.52844,-0.152716][-0.559055,-0.811024,-0.188976][0.726559,0.270486,0][-2.26442,-2.83866,2e-06][-0.125984,-0.992126,0][0.71751,0.298184,0][-2.8774,-2.54876,2e-06][-0.559055,-0.826772,0][0.720233,0.27051,0][-2.8851,-2.52844,0.15272][-0.559055,-0.811024,0.188976][0.952312,0.225685,0][-2.26442,-2.83866,2e-06][-0.125984,-0.992126,0][0.961361,0.253382,0][-2.27542,-2.80958,0.218466][-0.141732,-0.952756,0.267717][0.952312,0.25335,0][-2.26442,-2.83866,2e-06][-0.125984,-0.992126,0][0.961361,0.253382,0][-2.8851,-2.52844,0.15272][-0.559055,-0.811024,0.188976][0.952312,0.225685,0][-2.8774,-2.54876,2e-06][-0.559055,-0.826772,0][0.958638,0.225708,0][-2.8851,-2.52844,-0.152716][-0.559055,-0.811024,-0.188976][0.938936,0.091585,0][-2.32084,-2.68966,-0.452108][-0.19685,-0.779528,-0.598425][0.946502,0.117523,0][-2.27542,-2.80958,-0.218462][-0.141732,-0.952756,-0.267717][0.93568,0.119059,0][-2.32084,-2.68966,-0.452108][-0.19685,-0.779528,-0.598425][0.946502,0.117523,0][-2.8851,-2.52844,-0.152716][-0.559055,-0.811024,-0.188976][0.938936,0.091585,0][-2.91684,-2.4446,-0.316046][-0.559055,-0.685039,-0.464567][0.946502,0.090513,0][-2.32084,-2.68966,0.452112][-0.19685,-0.771654,0.598425][0.837451,0.268435,0][-2.8851,-2.52844,0.15272][-0.559055,-0.811024,0.188976][0.845017,0.242498,0][-2.27542,-2.80958,0.218466][-0.141732,-0.952756,0.267717][0.848273,0.269971,0][-2.8851,-2.52844,0.15272][-0.559055,-0.811024,0.188976][0.845017,0.242498,0][-2.32084,-2.68966,0.452112][-0.19685,-0.771654,0.598425][0.837451,0.268435,0][-2.91684,-2.4446,0.316052][-0.559055,-0.685039,0.464567][0.837451,0.241425,0][3.22814,2.07912,2.29392e-16][0.80315,0.598425,0][0.099424,0.951437,0][3.43744,1.70806,-0.36476][0.88189,0.425197,-0.188976][0.062181,0.889818,0][3.21134,2.02522,-0.470604][0.80315,0.559055,-0.212598][0.099424,0.877861,0][3.43744,1.70806,-0.36476][0.88189,0.425197,-0.188976][0.062181,0.889818,0][3.22814,2.07912,2.29392e-16][0.80315,0.598425,0][0.099424,0.951437,0][3.45046,1.74985,2e-06][0.889764,0.456693,0][0.062186,0.946853,0][2.99232,2.37162,2.65212e-16][0.661417,0.755906,0][0.236517,0.858603,0][3.21134,2.02522,-0.470604][0.80315,0.559055,-0.212598][0.271755,0.936049,0][2.9724,2.30766,-0.558412][0.653543,0.716535,-0.244094][0.236517,0.945908,0][3.21134,2.02522,-0.470604][0.80315,0.559055,-0.212598][0.271755,0.936049,0][2.99232,2.37162,2.65212e-16][0.661417,0.755906,0][0.236517,0.858603,0][3.22814,2.07912,2.29392e-16][0.80315,0.598425,0][0.271752,0.862465,0][3.21134,2.02522,0.470606][0.80315,0.559055,0.212598][0.398458,0.787143,0][2.99232,2.37162,2.65212e-16][0.661417,0.755906,0][0.351565,0.728879,0][2.9724,2.30766,0.558414][0.653543,0.716535,0.244094][0.40439,0.728879,0][2.99232,2.37162,2.65212e-16][0.661417,0.755906,0][0.351565,0.728879,0][3.21134,2.02522,0.470606][0.80315,0.559055,0.212598][0.398458,0.787143,0][3.22814,2.07912,2.29392e-16][0.80315,0.598425,0][0.353898,0.787004,0][3.43744,1.70806,0.364762][0.88189,0.425197,0.188976][0.391063,0.848682,0][3.22814,2.07912,2.29392e-16][0.80315,0.598425,0][0.353898,0.787004,0][3.21134,2.02522,0.470606][0.80315,0.559055,0.212598][0.398458,0.787143,0][3.22814,2.07912,2.29392e-16][0.80315,0.598425,0][0.353898,0.787004,0][3.43744,1.70806,0.364762][0.88189,0.425197,0.188976][0.391063,0.848682,0][3.45046,1.74985,2e-06][0.889764,0.456693,0][0.356511,0.848455,0][3.52808,1.4775,0.275172][0.976378,0.165354,0.125984][0.566748,0.919132,0][3.45046,1.74985,2e-06][0.889764,0.456693,0][0.542772,0.965924,0][3.43744,1.70806,0.364762][0.889764,0.425197,0.188976][0.542772,0.908897,0][3.45046,1.74985,2e-06][0.889764,0.456693,0][0.542772,0.965924,0][3.52808,1.4775,0.275172][0.976378,0.165354,0.125984][0.566748,0.919132,0][3.5379,1.50902,2e-06][0.984252,0.188976,0][0.566744,0.962159,0][3.45046,1.74985,2e-06][0.889764,0.456693,0][0.585409,0.671487,0][3.52808,1.4775,-0.275168][0.976378,0.165354,-0.125984][0.561434,0.624694,0][3.43744,1.70806,-0.36476][0.889764,0.425197,-0.188976][0.585409,0.61446,0][3.52808,1.4775,-0.275168][0.976378,0.165354,-0.125984][0.561434,0.624694,0][3.45046,1.74985,2e-06][0.889764,0.456693,0][0.585409,0.671487,0][3.5379,1.50902,2e-06][0.984252,0.188976,0][0.561437,0.667722,0][2.9724,2.30766,0.558414][0.653543,0.716535,0.244094][0.28355,0.9518,0][3.1421,1.8029,0.97392][0.779528,0.377953,0.496063][0.31929,0.865138,0][3.21134,2.02522,0.470606][0.80315,0.559055,0.220472][0.319286,0.951232,0][3.1421,1.8029,0.97392][0.779528,0.377953,0.496063][0.31929,0.865138,0][2.9724,2.30766,0.558414][0.653543,0.716535,0.244094][0.28355,0.9518,0][2.89024,2.04386,1.15564][0.622047,0.527559,0.582677][0.28355,0.84965,0][3.21134,2.02522,-0.470604][0.80315,0.559055,-0.220472][0.351569,0.951658,0][3.1421,1.8029,-0.973918][0.779528,0.377953,-0.496063][0.351565,0.865564,0][2.9724,2.30766,-0.558412][0.653543,0.716535,-0.244094][0.387305,0.952226,0][2.89024,2.04386,-1.15564][0.622047,0.527559,-0.582677][0.387305,0.850077,0][2.9724,2.30766,-0.558412][0.653543,0.716535,-0.244094][0.387305,0.952226,0][3.1421,1.8029,-0.973918][0.779528,0.377953,-0.496063][0.351565,0.865564,0][3.1421,1.8029,-0.973918][0.779528,0.377953,-0.496063][0.499918,0.962923,0][3.21134,2.02522,-0.470604][0.80315,0.559055,-0.220472][0.499918,0.876837,0][3.38378,1.53575,-0.754876][0.866142,0.259843,-0.425197][0.537857,0.944004,0][3.21134,2.02522,-0.470604][0.80315,0.559055,-0.220472][0.499918,0.876837,0][3.43744,1.70806,-0.36476][0.88189,0.425197,-0.188976][0.537852,0.877271,0][3.38378,1.53575,-0.754876][0.866142,0.259843,-0.425197][0.537857,0.944004,0][3.21134,2.02522,0.470606][0.80315,0.559055,0.220472][0.102224,0.952705,0][3.1421,1.8029,0.97392][0.779528,0.377953,0.496063][0.102224,0.86662,0][3.38378,1.53575,0.754878][0.866142,0.259843,0.425197][0.140163,0.885539,0][3.21134,2.02522,0.470606][0.80315,0.559055,0.220472][0.102224,0.952705,0][3.38378,1.53575,0.754878][0.866142,0.259843,0.425197][0.140163,0.885539,0][3.43744,1.70806,0.364762][0.88189,0.425197,0.188976][0.140159,0.952271,0][2.9724,2.30766,0.558414][0.653543,0.716535,0.244094][0.571725,0.387407,0][2.38798,2.74526,3.1097e-16][0.307087,0.952756,0][0.51688,0.277154,0][2.36582,2.67406,0.621462][0.299213,0.913386,0.267717][0.575712,0.277154,0][2.38798,2.74526,3.1097e-16][0.307087,0.952756,0][0.51688,0.277154,0][2.9724,2.30766,0.558414][0.653543,0.716535,0.244094][0.571725,0.387407,0][2.99232,2.37162,2.65212e-16][0.661417,0.755906,0][0.518859,0.387402,0][2.38798,2.74526,3.1097e-16][0.307087,0.952756,0][0.575711,0.388802,0][2.9724,2.30766,-0.558412][0.653543,0.716535,-0.244094][0.520867,0.499055,0][2.36582,2.67406,-0.62146][0.299213,0.913386,-0.267717][0.51688,0.388802,0][2.9724,2.30766,-0.558412][0.653543,0.716535,-0.244094][0.520867,0.499055,0][2.38798,2.74526,3.1097e-16][0.307087,0.952756,0][0.575711,0.388802,0][2.99232,2.37162,2.65212e-16][0.661417,0.755906,0][0.573732,0.49905,0][3.4876,1.34751,0.569468][0.96063,0.0472441,0.283465][0.582285,0.521931,0][3.52808,1.4775,0.275172][0.976378,0.165354,0.125984][0.582285,0.572273,0][3.43744,1.70806,0.364762][0.889764,0.425197,0.188976][0.557526,0.572241,0][3.43744,1.70806,0.364762][0.889764,0.425197,0.188976][0.557526,0.572241,0][3.38378,1.53575,0.754878][0.866142,0.259843,0.425197][0.557521,0.505517,0][3.4876,1.34751,0.569468][0.96063,0.0472441,0.283465][0.582285,0.521931,0][3.38378,1.53575,-0.754876][0.866142,0.259843,-0.425197][0.141008,0.933376,0][3.43744,1.70806,-0.36476][0.889764,0.425197,-0.188976][0.141013,0.866653,0][3.4876,1.34751,-0.569464][0.96063,0.0472441,-0.283465][0.165772,0.916963,0][3.43744,1.70806,-0.36476][0.889764,0.425197,-0.188976][0.141013,0.866653,0][3.52808,1.4775,-0.275168][0.976378,0.165354,-0.125984][0.165772,0.86662,0][3.4876,1.34751,-0.569464][0.96063,0.0472441,-0.283465][0.165772,0.916963,0][2.9724,2.30766,-0.558412][0.653543,0.716535,-0.244094][0.19885,0.855051,0][2.89024,2.04386,-1.15564][0.622047,0.527559,-0.582677][0.198847,0.752895,0][2.36582,2.67406,-0.62146][0.299213,0.913386,-0.267717][0.265709,0.857208,0][2.36582,2.67406,-0.62146][0.299213,0.913386,-0.267717][0.265709,0.857208,0][2.89024,2.04386,-1.15564][0.622047,0.527559,-0.582677][0.198847,0.752895,0][2.27438,2.3805,-1.28612][0.259843,0.724409,-0.637795][0.265709,0.743524,0][2.89024,2.04386,1.15564][0.622047,0.527559,0.582677][0.350413,0.743942,0][2.36582,2.67406,0.621462][0.299213,0.913386,0.267717][0.28355,0.848256,0][2.27438,2.3805,1.28612][0.259843,0.724409,0.637795][0.28355,0.734572,0][2.36582,2.67406,0.621462][0.299213,0.913386,0.267717][0.28355,0.848256,0][2.89024,2.04386,1.15564][0.622047,0.527559,0.582677][0.350413,0.743942,0][2.9724,2.30766,0.558414][0.653543,0.716535,0.244094][0.350409,0.846099,0][3.53364,1.20306,0.15098][0.976378,0.015748,0.204724][0.591809,0.080967,0][3.5379,1.50902,2e-06][0.984252,0.188976,0][0.567012,0.047375,0][3.52808,1.4775,0.275172][0.976378,0.165354,0.125984][0.591809,0.034196,0][3.5379,1.50902,2e-06][0.984252,0.188976,0][0.607925,0.421082,0][3.53364,1.20306,0.15098][0.976378,0.015748,0.204724][0.627647,0.451691,0][3.53902,1.22036,2e-06][0.992126,-0.0708661,-0.0787402][0.611417,0.451684,0][3.5379,1.50902,2e-06][0.984252,0.188976,0][0.320134,0.973641,0][3.53364,1.20306,-0.150976][0.984252,-0.110236,-0.125984][0.33751,0.929118,0][3.52808,1.4775,-0.275168][0.976378,0.165354,-0.125984][0.346184,0.973641,0][3.53364,1.20306,-0.150976][0.984252,-0.110236,-0.125984][0.659217,0.615507,0][3.5379,1.50902,2e-06][0.984252,0.188976,0][0.716002,0.500496,0][3.53902,1.00422,2e-06][0.984252,-0.125984,-0.0866142][0.716002,0.690258,0][3.53364,0.986922,-0.150976][0.976378,-0.212598,0.0866142][0.812598,0.662344,0][3.53364,1.20306,-0.150976][1,0.00787402,0.023622][0.82224,0.581585,0][3.53902,1.00422,2e-06][1,-0.0708661,-0.0393701][0.86979,0.662344,0][3.53364,1.20306,-0.150976][1,0.00787402,0.023622][0.82224,0.581585,0][3.53364,0.986922,-0.150976][0.976378,-0.212598,0.0866142][0.812598,0.662344,0][3.51142,1.13174,-0.312448][0.984252,-0.149606,-0.0944882][0.758442,0.600764,0][3.53902,1.00422,2e-06][1,-0.0708661,-0.0393701][0.870095,0.500496,0][3.51142,1.13174,0.312452][0.984252,0.0708661,0.149606][0.753312,0.551101,0][3.53364,1.00574,0.15098][0.937008,-0.354331,0.023622][0.813419,0.502165,0][3.53364,1.00574,0.15098][0.937008,-0.354331,0.023622][0.813419,0.502165,0][3.51142,1.13174,0.312452][0.984252,0.0708661,0.149606][0.753312,0.551101,0][3.51142,0.997316,0.312452][0.913386,-0.354331,0.19685][0.75229,0.500496,0][3.51142,1.13174,0.312452][0.984252,0.0708661,0.149606][0.753312,0.551101,0][3.53902,1.00422,2e-06][1,-0.0708661,-0.0393701][0.870095,0.500496,0][3.53364,1.20306,0.15098][0.976378,0.015748,0.204724][0.815266,0.576621,0][3.53902,1.00422,2e-06][1,-0.0708661,-0.0393701][0.870095,0.500496,0][3.53902,1.22036,2e-06][0.992126,-0.0708661,-0.0787402][0.872312,0.58152,0][3.53364,1.20306,0.15098][0.976378,0.015748,0.204724][0.815266,0.576621,0][3.51142,1.13174,0.312452][0.976378,-0.181102,0.102362][0.870209,0.9791,0][3.53364,1.20306,0.15098][0.992126,-0.141732,0.0472441][0.870209,0.96011,0][3.52808,1.4775,0.275172][0.976378,0.165354,0.125984][0.902354,0.960466,0][3.52808,1.4775,0.275172][0.976378,0.165354,0.125984][0.902354,0.960466,0][3.4876,1.34751,0.569468][0.96063,0.0472441,0.283465][0.902369,0.995067,0][3.51142,1.13174,0.312452][0.976378,-0.181102,0.102362][0.870209,0.9791,0][3.4876,1.34751,-0.569464][0.96063,0.0472441,-0.283465][0.793328,0.998831,0][3.52808,1.4775,-0.275168][0.976378,0.165354,-0.125984][0.793344,0.96423,0][3.51142,1.13174,-0.312448][0.984252,-0.149606,-0.0944882][0.825488,0.982864,0][3.52808,1.4775,-0.275168][0.976378,0.165354,-0.125984][0.793344,0.96423,0][3.53364,1.20306,-0.150976][1,0.00787402,0.023622][0.825488,0.963875,0][3.51142,1.13174,-0.312448][0.984252,-0.149606,-0.0944882][0.825488,0.982864,0][3.4712,1.00261,-0.399392][0.976378,-0.173228,-0.133858][0.716164,0.646195,0][3.51142,1.13174,-0.312448][0.968504,-0.0787402,-0.228346][0.757366,0.601699,0][3.51142,1.13174,-0.312448][0.984252,-0.149606,-0.0944882][0.758442,0.600764,0][3.51142,1.13174,-0.312448][0.984252,-0.149606,-0.0944882][0.758442,0.600764,0][3.53364,0.986922,-0.150976][0.976378,-0.212598,0.0866142][0.812598,0.662344,0][3.4712,1.00261,-0.399392][0.976378,-0.173228,-0.133858][0.716164,0.646195,0][3.4712,1.00261,-0.399392][0.976378,-0.173228,-0.133858][0.716164,0.646195,0][3.53364,0.986922,-0.150976][0.976378,-0.212598,0.0866142][0.812598,0.662344,0][3.4712,1.00261,-0.399392][0.937008,-0.188976,-0.307087][0.716067,0.646816,0][3.53364,0.986922,-0.150976][0.976378,-0.212598,0.0866142][0.812598,0.662344,0][3.51142,0.997316,-0.312448][0.968504,-0.220472,-0.0866142][0.751773,0.651995,0][3.4712,1.00261,-0.399392][0.937008,-0.188976,-0.307087][0.716067,0.646816,0][3.4876,1.34751,0.569468][0.96063,0.0472441,0.283465][0.488388,0.949547,0][3.28662,1.22377,0.964938][0.787402,-0.0551181,0.614173][0.461806,0.89312,0][3.4143,1.11216,0.727932][0.905512,-0.15748,0.393701][0.488385,0.904052,0][3.28662,1.22377,0.964938][0.787402,-0.0551181,0.614173][0.461806,0.89312,0][3.4876,1.34751,0.569468][0.96063,0.0472441,0.283465][0.488388,0.949547,0][3.38378,1.53575,0.754878][0.866142,0.259843,0.425197][0.461806,0.953418,0][3.28662,1.22377,-0.964934][0.787402,-0.0551181,-0.614173][0.169829,0.955305,0][3.4876,1.34751,-0.569464][0.96063,0.0472441,-0.283465][0.196411,0.898878,0][3.4143,1.11216,-0.72793][0.905512,-0.15748,-0.393701][0.196407,0.944373,0][3.4876,1.34751,-0.569464][0.96063,0.0472441,-0.283465][0.196411,0.898878,0][3.28662,1.22377,-0.964934][0.787402,-0.0551181,-0.614173][0.169829,0.955305,0][3.38378,1.53575,-0.754876][0.866142,0.259843,-0.425197][0.169829,0.895006,0][3.38378,1.53575,0.754878][0.866142,0.259843,0.425197][0.412038,0.89777,0][3.01674,1.4004,1.24493][0.685039,0.015748,0.724409][0.451527,0.970032,0][3.28662,1.22377,0.964938][0.787402,-0.0551181,0.614173][0.412042,0.958076,0][3.01674,1.4004,1.24493][0.685039,0.015748,0.724409][0.451527,0.970032,0][3.38378,1.53575,0.754878][0.866142,0.259843,0.425197][0.412038,0.89777,0][3.1421,1.8029,0.97392][0.779528,0.377953,0.496063][0.451527,0.892236,0][3.01674,1.4004,-1.24493][0.685039,0.015748,-0.724409][0.021848,0.955657,0][3.38378,1.53575,-0.754876][0.866142,0.259843,-0.425197][0.061337,0.883395,0][3.28662,1.22377,-0.964934][0.787402,-0.0551181,-0.614173][0.061333,0.943702,0][3.38378,1.53575,-0.754876][0.866142,0.259843,-0.425197][0.061337,0.883395,0][3.01674,1.4004,-1.24493][0.685039,0.015748,-0.724409][0.021848,0.955657,0][3.1421,1.8029,-0.973918][0.779528,0.377953,-0.496063][0.021848,0.877861,0][3.1421,1.8029,0.97392][0.779528,0.377953,0.503937][0.235672,0.945911,0][2.74148,1.56626,1.47722][0.496063,0.11811,0.858268][0.198847,0.858603,0][3.01674,1.4004,1.24493][0.685039,0.015748,0.732283][0.235669,0.868107,0][2.74148,1.56626,1.47722][0.496063,0.11811,0.858268][0.198847,0.858603,0][3.1421,1.8029,0.97392][0.779528,0.377953,0.503937][0.235672,0.945911,0][2.89024,2.04386,1.15564][0.622047,0.527559,0.582677][0.198847,0.950916,0][2.74148,1.56626,-1.47722][0.496063,0.11811,-0.858268][0.523764,0.706773,0][3.1421,1.8029,-0.973918][0.779528,0.377953,-0.496063][0.560589,0.619464,0][3.01674,1.4004,-1.24493][0.685039,0.015748,-0.724409][0.560586,0.697268,0][3.1421,1.8029,-0.973918][0.779528,0.377953,-0.496063][0.560589,0.619464,0][2.74148,1.56626,-1.47722][0.496063,0.11811,-0.858268][0.523764,0.706773,0][2.89024,2.04386,-1.15564][0.622047,0.527559,-0.582677][0.523764,0.61446,0][-2.91684,-2.4446,0.316052][-0.551181,-0.685039,0.464567][0.772764,0.267027,0][-2.40304,-2.47254,0.577922][-0.283465,-0.393701,0.874016][0.782209,0.245314,0][-2.9743,-2.29282,0.404][-0.527559,-0.393701,0.755906][0.779367,0.270729,0][-2.40304,-2.47254,0.577922][-0.283465,-0.393701,0.874016][0.782209,0.245314,0][-2.91684,-2.4446,0.316052][-0.551181,-0.685039,0.464567][0.772764,0.267027,0][-2.32084,-2.68966,0.452112][-0.19685,-0.771654,0.598425][0.772764,0.240016,0][-2.9743,-2.29282,-0.403994][-0.527559,-0.393701,-0.755906][0.718661,0.269843,0][-2.40304,-2.47254,-0.577918][-0.283465,-0.393701,-0.874016][0.715819,0.244428,0][-2.91684,-2.4446,-0.316046][-0.559055,-0.685039,-0.464567][0.725263,0.26614,0][-2.91684,-2.4446,-0.316046][-0.559055,-0.685039,-0.464567][0.725263,0.26614,0][-2.40304,-2.47254,-0.577918][-0.283465,-0.393701,-0.874016][0.715819,0.244428,0][-2.32084,-2.68966,-0.452108][-0.19685,-0.771654,-0.598425][0.725263,0.239129,0][3.51142,1.13174,0.312452][0.984252,0.0708661,0.149606][0.753312,0.551101,0][3.4712,1.00261,0.399396][0.944882,-0.0866142,0.314961][0.716067,0.503207,0][3.51142,0.997316,0.312452][0.913386,-0.354331,0.19685][0.75229,0.500496,0][-3.48366,-1.91257,0.123098][-0.826772,-0.370079,0.425197][0.886415,0.238848,0][-3.05968,-2.06734,0.404][-0.425197,0.0866142,0.905512][0.880121,0.259722,0][-3.50968,-1.84387,0.123098][-0.818898,-0.0787402,0.566929][0.884498,0.236525,0][-3.05968,-2.06734,0.404][-0.425197,0.0866142,0.905512][0.880121,0.259722,0][-3.48366,-1.91257,0.123098][-0.826772,-0.370079,0.425197][0.886415,0.238848,0][-2.9743,-2.29282,0.404][-0.527559,-0.393701,0.755906][0.886415,0.267349,0][-2.9743,-2.29282,-0.403994][-0.527559,-0.393701,-0.755906][0.932648,0.225685,0][-3.48366,-1.91257,-0.123092][-0.826772,-0.370079,-0.425197][0.932648,0.254185,0][-3.05968,-2.06734,-0.403994][-0.425197,0.0866142,-0.905512][0.926354,0.233311,0][-3.50968,-1.84387,-0.123092][-0.818898,-0.0787402,-0.566929][0.93073,0.256509,0][-3.05968,-2.06734,-0.403994][-0.425197,0.0866142,-0.905512][0.926354,0.233311,0][-3.48366,-1.91257,-0.123092][-0.826772,-0.370079,-0.425197][0.932648,0.254185,0][2.38798,2.74526,3.1097e-16][0.307087,0.952756,0][0.102224,0.753234,0][0.960898,2.83866,3.22406e-16][-0.19685,0.984252,0][0.102224,0.531221,0][2.36582,2.67406,0.621462][0.299213,0.913386,0.267717][0.161034,0.750521,0][0.962136,2.76504,0.609248][-0.19685,0.944882,0.267717][0.159904,0.532158,0][2.36582,2.67406,0.621462][0.299213,0.913386,0.267717][0.161034,0.750521,0][0.960898,2.83866,3.22406e-16][-0.19685,0.984252,0][0.102224,0.531221,0][2.36582,2.67406,-0.62146][0.299213,0.913386,-0.267717][0.257657,0.52283,0][0.960898,2.83866,3.22406e-16][-0.19685,0.984252,0][0.198847,0.74213,0][2.38798,2.74526,3.1097e-16][0.307087,0.952756,0][0.198847,0.520117,0][0.960898,2.83866,3.22406e-16][-0.19685,0.984252,0][0.198847,0.74213,0][2.36582,2.67406,-0.62146][0.299213,0.913386,-0.267717][0.257657,0.52283,0][0.962136,2.76504,-0.609248][-0.19685,0.944882,-0.267717][0.256526,0.741193,0][3.51142,1.13174,0.312452][0.984252,0.0708661,0.149606][0.937621,0.723428,0][3.4876,1.34751,0.569468][0.96063,0.0472441,0.283465][0.934604,0.687659,0][3.4712,1.00261,0.399396][0.944882,-0.0866142,0.314961][0.954782,0.723436,0][3.4876,1.34751,0.569468][0.96063,0.0472441,0.283465][0.934604,0.687659,0][3.4143,1.11216,0.727932][0.905512,-0.15748,0.393701][0.965873,0.687659,0][3.4712,1.00261,0.399396][0.944882,-0.0866142,0.314961][0.954782,0.723436,0][3.4712,1.00261,-0.399392][0.976378,-0.173228,-0.133858][0.175548,0.781303,0][3.4143,1.11216,-0.72793][0.905512,-0.15748,-0.393701][0.164456,0.745525,0][3.4876,1.34751,-0.569464][0.96063,0.0472441,-0.283465][0.195725,0.745525,0][3.4712,1.00261,-0.399392][0.976378,-0.173228,-0.133858][0.175548,0.781303,0][3.4876,1.34751,-0.569464][0.96063,0.0472441,-0.283465][0.195725,0.745525,0][3.51142,1.13174,-0.312448][0.968504,-0.0787402,-0.228346][0.192709,0.781295,0][2.36582,2.67406,0.621462][0.299213,0.913386,0.267717][0.0904,0.546108,0][0.962136,2.76504,0.609248][-0.19685,0.944882,0.267717][0.0904,0.764475,0][2.27438,2.3805,1.28612][0.259843,0.724409,0.637795][0.021848,0.556427,0][0.967232,2.46146,1.26085][-0.188976,0.755906,0.629921][0.022892,0.759769,0][2.27438,2.3805,1.28612][0.259843,0.724409,0.637795][0.021848,0.556427,0][0.962136,2.76504,0.609248][-0.19685,0.944882,0.267717][0.0904,0.764475,0][2.27438,2.3805,-1.28612][0.259843,0.724409,-0.637795][0.409373,0.485202,0][0.962136,2.76504,-0.609248][-0.19685,0.944882,-0.267717][0.477925,0.277154,0][2.36582,2.67406,-0.62146][0.299213,0.913386,-0.267717][0.477925,0.495521,0][0.962136,2.76504,-0.609248][-0.19685,0.944882,-0.267717][0.477925,0.277154,0][2.27438,2.3805,-1.28612][0.259843,0.724409,-0.637795][0.409373,0.485202,0][0.967232,2.46146,-1.26084][-0.188976,0.755906,-0.629921][0.410418,0.28186,0][2.89024,2.04386,1.15564][0.622047,0.527559,0.582677][0.026149,0.876467,0][2.10882,1.84897,1.644][0.165354,0.275591,0.944882][0.084054,0.765869,0][2.74148,1.56626,1.47722][0.496063,0.11811,0.858268][0.082046,0.876462,0][2.10882,1.84897,1.644][0.165354,0.275591,0.944882][0.084054,0.765869,0][2.89024,2.04386,1.15564][0.622047,0.527559,0.582677][0.026149,0.876467,0][2.27438,2.3805,1.28612][0.259843,0.724409,0.637795][0.021848,0.765869,0][2.10882,1.84897,-1.644][0.165354,0.275591,-0.944882][0.102224,0.754628,0][2.89024,2.04386,-1.15564][0.622047,0.527559,-0.582677][0.160129,0.865225,0][2.74148,1.56626,-1.47722][0.496063,0.11811,-0.858268][0.104232,0.865221,0][2.89024,2.04386,-1.15564][0.622047,0.527559,-0.582677][0.160129,0.865225,0][2.10882,1.84897,-1.644][0.165354,0.275591,-0.944882][0.102224,0.754628,0][2.27438,2.3805,-1.28612][0.259843,0.724409,-0.637795][0.16443,0.754628,0][3.3054,0.762512,0.727932][0.834646,-0.385827,0.401575][0.957157,0.057462,0][3.4712,1.00261,0.399396][0.952756,-0.259843,0.133858][0.971096,0.068883,0][3.4143,1.11216,0.727932][0.905512,-0.15748,0.393701][0.957157,0.072479,0][3.4712,1.00261,0.399396][0.952756,-0.259843,0.133858][0.971096,0.068883,0][3.3054,0.762512,0.727932][0.834646,-0.385827,0.401575][0.957157,0.057462,0][3.41146,0.810766,0.399396][0.929134,-0.330709,0.141732][0.971092,0.060641,0][3.3054,0.762514,-0.72793][0.834646,-0.385827,-0.401575][0.855131,0.074402,0][3.4712,1.00261,-0.399392][0.952756,-0.259843,-0.133858][0.841192,0.085823,0][3.41146,0.810766,-0.399392][0.929134,-0.330709,-0.141732][0.841195,0.077581,0][3.4712,1.00261,-0.399392][0.952756,-0.259843,-0.133858][0.841192,0.085823,0][3.3054,0.762514,-0.72793][0.834646,-0.385827,-0.401575][0.855131,0.074402,0][3.4143,1.11216,-0.72793][0.905512,-0.15748,-0.393701][0.855131,0.089419,0][3.4712,1.00261,-0.399392][0.937008,-0.188976,-0.307087][0.91002,0.225154,0][3.37124,0.681638,-0.312448][0.84252,-0.496063,-0.188976][0.92381,0.221599,0][3.41146,0.810766,-0.399392][0.929134,-0.330709,-0.133858][0.918258,0.225161,0][3.37124,0.681638,0.312452][0.84252,-0.496063,0.188976][0.923821,0.195965,0][3.4712,1.00261,0.399396][0.874016,-0.0708661,0.480315][0.910033,0.192398,0][3.41146,0.810766,0.399396][0.929134,-0.330709,0.133858][0.918272,0.192398,0][3.4143,1.11216,-0.72793][0.905512,-0.15748,-0.393701][0.849068,0.273307,0][3.14226,0.760286,-0.964934][0.669291,-0.401575,-0.622047][0.837451,0.290402,0][3.28662,1.22377,-0.964934][0.787402,-0.0551181,-0.614173][0.837451,0.270495,0][3.14226,0.760286,-0.964934][0.669291,-0.401575,-0.622047][0.837451,0.290402,0][3.4143,1.11216,-0.72793][0.905512,-0.15748,-0.393701][0.849068,0.273307,0][3.3054,0.762514,-0.72793][0.834646,-0.385827,-0.401575][0.849066,0.288327,0][3.14226,0.760286,0.964938][0.669291,-0.401575,0.622047][0.873386,0.089918,0][3.4143,1.11216,0.727932][0.905512,-0.15748,0.393701][0.861769,0.072823,0][3.28662,1.22377,0.964938][0.787402,-0.0551181,0.614173][0.873386,0.070011,0][3.4143,1.11216,0.727932][0.905512,-0.15748,0.393701][0.861769,0.072823,0][3.14226,0.760286,0.964938][0.669291,-0.401575,0.622047][0.873386,0.089918,0][3.3054,0.762512,0.727932][0.834646,-0.385827,0.401575][0.861771,0.087844,0][0.967232,2.46146,1.26085][-0.188976,0.755906,0.629921][0.52292,0.708856,0][2.10882,1.84897,1.644][0.165354,0.275591,0.944882][0.461838,0.524985,0][2.27438,2.3805,1.28612][0.259843,0.724409,0.637795][0.52292,0.505517,0][2.10882,1.84897,1.644][0.165354,0.275591,0.944882][0.461838,0.524985,0][0.967232,2.46146,1.26085][-0.188976,0.755906,0.629921][0.52292,0.708856,0][0.97646,1.91185,1.6117][-0.165354,0.299213,0.937008][0.461806,0.701122,0][0.967232,2.46146,-1.26084][-0.188976,0.755906,-0.629921][0.532411,0.034196,0][2.10882,1.84897,-1.644][0.165354,0.275591,-0.944882][0.471329,0.218067,0][0.97646,1.91186,-1.6117][-0.165354,0.299213,-0.937008][0.471297,0.04193,0][2.10882,1.84897,-1.644][0.165354,0.275591,-0.944882][0.471329,0.218067,0][0.967232,2.46146,-1.26084][-0.188976,0.755906,-0.629921][0.532411,0.034196,0][2.27438,2.3805,-1.28612][0.259843,0.724409,-0.637795][0.532411,0.237535,0][3.53902,1.00422,2e-06][1,-0.0708661,-0.0393701][0.90068,0.208772,0][3.34364,0.59302,2e-06][0.818898,-0.582677,0.00787402][0.927629,0.208784,0][3.53364,0.986922,-0.150976][0.976378,-0.212598,0.0866142][0.90142,0.214963,0][3.34364,0.59302,2e-06][0.818898,-0.582677,0.00787402][0.927629,0.208784,0][3.53902,1.00422,2e-06][1,-0.0708661,-0.0393701][0.90068,0.208772,0][3.53364,1.00574,0.15098][0.937008,-0.354331,0.023622][0.901426,0.202583,0][3.53364,0.986922,-0.150976][0.976378,-0.212598,0.0866142][0.90142,0.214963,0][3.34364,0.59302,2e-06][0.818898,-0.582677,0.00787402][0.927629,0.208784,0][3.34902,0.610316,-0.150976][0.818898,-0.574803,-0.0866142][0.926882,0.214977,0][3.34364,0.59302,2e-06][0.818898,-0.582677,0.00787402][0.927629,0.208784,0][3.53364,1.00574,0.15098][0.937008,-0.354331,0.023622][0.901426,0.202583,0][3.34902,0.610316,0.15098][0.826772,-0.559055,0.0787402][0.926887,0.20259,0][3.34902,0.610316,0.15098][0.826772,-0.559055,0.0787402][0.926887,0.20259,0][3.53364,1.00574,0.15098][0.937008,-0.354331,0.023622][0.901426,0.202583,0][3.51142,0.997316,0.312452][0.913386,-0.354331,0.19685][0.904489,0.195963,0][3.53364,0.986922,-0.150976][0.976378,-0.212598,0.0866142][0.90142,0.214963,0][3.34902,0.610316,-0.150976][0.818898,-0.574803,-0.0866142][0.926882,0.214977,0][3.51142,0.997316,-0.312448][0.968504,-0.220472,-0.0866142][0.904478,0.221585,0][3.37124,0.681638,-0.312448][0.84252,-0.496063,-0.188976][0.92381,0.221599,0][3.51142,0.997316,-0.312448][0.968504,-0.220472,-0.0866142][0.904478,0.221585,0][3.34902,0.610316,-0.150976][0.818898,-0.574803,-0.0866142][0.926882,0.214977,0][3.51142,0.997316,-0.312448][0.968504,-0.220472,-0.0866142][0.904478,0.221585,0][3.37124,0.681638,-0.312448][0.84252,-0.496063,-0.188976][0.92381,0.221599,0][3.4712,1.00261,-0.399392][0.937008,-0.188976,-0.307087][0.91002,0.225154,0][3.51142,0.997316,0.312452][0.913386,-0.354331,0.19685][0.904489,0.195963,0][3.37124,0.681638,0.312452][0.84252,-0.496063,0.188976][0.923821,0.195965,0][3.34902,0.610316,0.15098][0.826772,-0.559055,0.0787402][0.926887,0.20259,0][3.4712,1.00261,0.399396][0.874016,-0.0708661,0.480315][0.910033,0.192398,0][3.37124,0.681638,0.312452][0.84252,-0.496063,0.188976][0.923821,0.195965,0][3.51142,0.997316,0.312452][0.913386,-0.354331,0.19685][0.904489,0.195963,0][3.41146,0.810766,-0.399392][0.929134,-0.330709,-0.141732][0.869662,0.29623,0][3.23208,0.527166,-0.569464][0.748031,-0.598425,-0.291339][0.877069,0.309764,0][3.3054,0.762514,-0.72793][0.834646,-0.385827,-0.401575][0.865052,0.309764,0][3.23208,0.527166,-0.569464][0.748031,-0.598425,-0.291339][0.877069,0.309764,0][3.41146,0.810766,-0.399392][0.929134,-0.330709,-0.141732][0.869662,0.29623,0][3.37124,0.681638,-0.312448][0.905512,-0.409449,-0.102362][0.876256,0.296233,0][3.23208,0.527166,0.569468][0.748031,-0.598425,0.291339][0.961638,0.036554,0][3.37124,0.681638,0.312452][0.905512,-0.409449,0.102362][0.96245,0.023023,0][3.41146,0.810766,0.399396][0.929134,-0.330709,0.141732][0.969045,0.02302,0][3.23208,0.527166,0.569468][0.748031,-0.598425,0.291339][0.961638,0.036554,0][3.41146,0.810766,0.399396][0.929134,-0.330709,0.141732][0.969045,0.02302,0][3.3054,0.762512,0.727932][0.834646,-0.385827,0.401575][0.973655,0.036554,0][-0.380784,2.10562,0.516566][-0.629921,0.732283,0.251969][0.078056,0.312028,0][0.960898,2.83866,3.22406e-16][-0.19685,0.984252,0][0.021848,0.544714,0][-0.399524,2.16764,2.4023e-16][-0.645669,0.76378,0][0.029144,0.309543,0][-0.399524,2.16764,2.4023e-16][-0.645669,0.76378,0][0.109521,0.529826,0][0.960898,2.83866,3.22406e-16][-0.19685,0.984252,0][0.102224,0.294656,0][-0.380784,2.10562,-0.516562][-0.629921,0.732283,-0.251969][0.158432,0.527342,0][-2.27542,-2.80958,0.218466][-0.141732,-0.952756,0.267717][0.951292,0.023023,0][-1.59753,-2.72694,2e-06][0.425197,-0.905512,0][0.961114,0.050739,0][-1.61241,-2.68882,0.296938][0.393701,-0.866142,0.299213][0.948822,0.050739,0][-1.59753,-2.72694,2e-06][0.425197,-0.905512,0][0.961114,0.050739,0][-2.27542,-2.80958,0.218466][-0.141732,-0.952756,0.267717][0.951292,0.023023,0][-2.26442,-2.83866,2e-06][-0.125984,-0.992126,0][0.960342,0.02302,0][-1.59753,-2.72694,2e-06][0.425197,-0.905512,0][0.865052,0.295707,0][-2.27542,-2.80958,-0.218462][-0.141732,-0.952756,-0.267717][0.874874,0.26799,0][-1.61241,-2.68882,-0.296936][0.393701,-0.866142,-0.299213][0.877344,0.295707,0][-2.27542,-2.80958,-0.218462][-0.141732,-0.952756,-0.267717][0.874874,0.26799,0][-1.59753,-2.72694,2e-06][0.425197,-0.905512,0][0.865052,0.295707,0][-2.26442,-2.83866,2e-06][-0.125984,-0.992126,0][0.865824,0.267987,0][0.960898,2.83866,3.22406e-16][-0.19685,0.984252,0][0.021848,0.544714,0][-0.380784,2.10562,0.516566][-0.629921,0.732283,0.251969][0.078056,0.312028,0][0.962136,2.76504,0.609248][-0.19685,0.944882,0.267717][0.079529,0.544714,0][0.962136,2.76504,-0.609248][-0.19685,0.944882,-0.267717][0.159906,0.294656,0][-0.380784,2.10562,-0.516562][-0.629921,0.732283,-0.251969][0.158432,0.527342,0][0.960898,2.83866,3.22406e-16][-0.19685,0.984252,0][0.102224,0.294656,0][-2.27542,-2.80958,0.218466][-0.141732,-0.952756,0.267717][0.947025,0.118533,0][-1.67376,-2.53158,0.614516][0.244094,-0.700787,0.669291][0.961773,0.090513,0][-2.32084,-2.68966,0.452112][-0.19685,-0.779528,0.598425][0.957955,0.118369,0][-1.67376,-2.53158,-0.614512][0.244094,-0.700787,-0.669291][0.864528,0.296008,0][-2.27542,-2.80958,-0.218462][-0.141732,-0.952756,-0.267717][0.849781,0.267987,0][-2.32084,-2.68966,-0.452108][-0.19685,-0.771654,-0.598425][0.86071,0.268152,0][3.28662,1.22377,0.964938][0.787402,-0.0551181,0.614173][0.785958,0.274658,0][2.8305,0.802422,1.24493][0.543307,-0.401575,0.740157][0.803096,0.296718,0][3.14226,0.760286,0.964938][0.669291,-0.401575,0.622047][0.78596,0.294568,0][2.8305,0.802422,1.24493][0.543307,-0.401575,0.740157][0.803096,0.296718,0][3.28662,1.22377,0.964938][0.787402,-0.0551181,0.614173][0.785958,0.274658,0][3.01674,1.4004,1.24493][0.685039,0.015748,0.732283][0.803096,0.271034,0][-1.67376,-2.53158,0.614516][0.244094,-0.700787,0.669291][0.961773,0.090513,0][-2.27542,-2.80958,0.218466][-0.141732,-0.952756,0.267717][0.947025,0.118533,0][-1.61241,-2.68882,0.296938][0.393701,-0.866142,0.299213][0.947025,0.090707,0][-2.27542,-2.80958,-0.218462][-0.141732,-0.952756,-0.267717][0.849781,0.267987,0][-1.67376,-2.53158,-0.614512][0.244094,-0.700787,-0.669291][0.864528,0.296008,0][-1.61241,-2.68882,-0.296936][0.393701,-0.866142,-0.299213][0.849781,0.295814,0][2.8305,0.802424,-1.24493][0.543307,-0.401575,-0.740157][0.76086,0.29767,0][3.28662,1.22377,-0.964934][0.787402,-0.0551181,-0.614173][0.777999,0.27561,0][3.14226,0.760286,-0.964934][0.669291,-0.401575,-0.622047][0.777997,0.29552,0][3.28662,1.22377,-0.964934][0.787402,-0.0551181,-0.614173][0.777999,0.27561,0][2.8305,0.802424,-1.24493][0.543307,-0.401575,-0.740157][0.76086,0.29767,0][3.01674,1.4004,-1.24493][0.685039,0.015748,-0.732283][0.76086,0.271986,0][-0.303498,1.84994,1.06904][-0.574803,0.566929,0.590551][0.303103,0.266858,0][0.962136,2.76504,0.609248][-0.19685,0.944882,0.267717][0.362877,0.034196,0][-0.380784,2.10562,0.516566][-0.629921,0.732283,0.251969][0.360784,0.266858,0][-0.380784,2.10562,-0.516562][-0.629921,0.732283,-0.251969][0.348628,0.277154,0][0.962136,2.76504,-0.609248][-0.19685,0.944882,-0.267717][0.350721,0.509816,0][-0.303498,1.84994,-1.06903][-0.574803,0.566929,-0.590551][0.290947,0.277154,0][0.962136,2.76504,0.609248][-0.19685,0.944882,0.267717][0.362877,0.034196,0][-0.303498,1.84994,1.06904][-0.574803,0.566929,0.590551][0.303103,0.266858,0][0.967232,2.46146,1.26085][-0.19685,0.755906,0.629921][0.295706,0.046253,0][0.967232,2.46146,-1.26084][-0.19685,0.755906,-0.629921][0.28355,0.497759,0][-0.303498,1.84994,-1.06903][-0.574803,0.566929,-0.590551][0.290947,0.277154,0][0.962136,2.76504,-0.609248][-0.19685,0.944882,-0.267717][0.350721,0.509816,0][2.5205,0.856702,1.47722][0.322835,-0.377953,0.866142][0.836928,0.271903,0][3.01674,1.4004,1.24493][0.685039,0.015748,0.732283][0.820971,0.244562,0][2.74148,1.56626,1.47722][0.496063,0.11811,0.858268][0.836928,0.241425,0][3.01674,1.4004,1.24493][0.685039,0.015748,0.732283][0.820971,0.244562,0][2.5205,0.856702,1.47722][0.322835,-0.377953,0.866142][0.836928,0.271903,0][2.8305,0.802422,1.24493][0.543307,-0.401575,0.740157][0.820972,0.270249,0][2.5205,0.856704,-1.47722][0.322835,-0.377953,-0.866142][0.925793,0.087939,0][3.01674,1.4004,-1.24493][0.685039,0.015748,-0.732283][0.94175,0.060598,0][2.8305,0.802424,-1.24493][0.543307,-0.401575,-0.740157][0.941749,0.086285,0][3.01674,1.4004,-1.24493][0.685039,0.015748,-0.732283][0.94175,0.060598,0][2.5205,0.856704,-1.47722][0.322835,-0.377953,-0.866142][0.925793,0.087939,0][2.74148,1.56626,-1.47722][0.496063,0.11811,-0.858268][0.925793,0.057462,0][3.37124,0.681638,0.312452][0.905512,-0.409449,0.102362][0.803619,0.302254,0][3.1916,0.397174,0.275172][0.692913,-0.708661,0.125984][0.815614,0.309242,0][3.34902,0.610316,0.15098][0.889764,-0.448819,0.0472441][0.803619,0.309552,0][3.1916,0.397174,0.275172][0.692913,-0.708661,0.125984][0.815614,0.309242,0][3.37124,0.681638,0.312452][0.905512,-0.409449,0.102362][0.803619,0.302254,0][3.23208,0.527166,0.569468][0.748031,-0.598425,0.291339][0.81562,0.295945,0][3.23208,0.527166,-0.569464][0.748031,-0.598425,-0.291339][0.960871,0.119582,0][3.37124,0.681638,-0.312448][0.905512,-0.409449,-0.102362][0.972872,0.125892,0][3.1916,0.397174,-0.275168][0.692913,-0.708661,-0.125984][0.960877,0.132879,0][3.1916,0.397174,-0.275168][0.692913,-0.708661,-0.125984][0.960877,0.132879,0][3.37124,0.681638,-0.312448][0.905512,-0.409449,-0.102362][0.972872,0.125892,0][3.34902,0.610316,-0.150976][0.889764,-0.448819,-0.0472441][0.972872,0.13319,0][-0.303498,1.84994,1.06904][-0.574803,0.566929,0.590551][0.404926,0.726208,0][0.97646,1.91185,1.6117][-0.165354,0.299213,0.937008][0.351565,0.528968,0][0.967232,2.46146,1.26085][-0.19685,0.755906,0.629921][0.411193,0.505517,0][0.97646,1.91186,-1.6117][-0.165354,0.299213,-0.937008][0.343178,0.534661,0][-0.303498,1.84994,-1.06903][-0.574803,0.566929,-0.590551][0.289817,0.731901,0][0.967232,2.46146,-1.26084][-0.19685,0.755906,-0.629921][0.28355,0.51121,0][-2.32084,-2.68966,0.452112][-0.19685,-0.771654,0.598425][0.942273,0.085633,0][-1.78484,-2.24692,0.785516][-0.0551181,-0.330709,0.944882][0.956634,0.057462,0][-2.40304,-2.47254,0.577922][-0.283465,-0.393701,0.874016][0.953103,0.08554,0][-1.78484,-2.24692,0.785516][-0.0551181,-0.330709,0.944882][0.956634,0.057462,0][-2.32084,-2.68966,0.452112][-0.19685,-0.771654,0.598425][0.942273,0.085633,0][-1.67376,-2.53158,0.614516][0.244094,-0.700787,0.669291][0.942273,0.057515,0][-1.78484,-2.24692,-0.785512][-0.0551181,-0.330709,-0.944882][0.894482,0.296044,0][-2.32084,-2.68966,-0.452108][-0.19685,-0.771654,-0.598425][0.880121,0.267872,0][-2.40304,-2.47254,-0.577918][-0.283465,-0.393701,-0.874016][0.890951,0.267966,0][-2.32084,-2.68966,-0.452108][-0.19685,-0.771654,-0.598425][0.880121,0.267872,0][-1.78484,-2.24692,-0.785512][-0.0551181,-0.330709,-0.944882][0.894482,0.296044,0][-1.67376,-2.53158,-0.614512][0.244094,-0.700787,-0.669291][0.880121,0.295991,0][3.18178,0.365652,2e-06][0.685039,-0.732283,0][0.849781,0.296531,0][3.34902,0.610316,-0.150976][0.889764,-0.448819,-0.0472441][0.857311,0.307905,0][3.34364,0.59302,2e-06][0.889764,-0.456693,0][0.851073,0.307902,0][3.34902,0.610316,-0.150976][0.889764,-0.448819,-0.0472441][0.857311,0.307905,0][3.18178,0.365652,2e-06][0.685039,-0.732283,0][0.849781,0.296531,0][3.1916,0.397174,-0.275168][0.692913,-0.708661,-0.125984][0.861146,0.296531,0][3.34902,0.610316,0.15098][0.889764,-0.448819,0.0472441][0.841286,0.302299,0][3.18178,0.365652,2e-06][0.685039,-0.732283,0][0.848816,0.290926,0][3.34364,0.59302,2e-06][0.889764,-0.456693,0][0.847523,0.302296,0][3.18178,0.365652,2e-06][0.685039,-0.732283,0][0.848816,0.290926,0][3.34902,0.610316,0.15098][0.889764,-0.448819,0.0472441][0.841286,0.302299,0][3.1916,0.397174,0.275172][0.692913,-0.708661,0.125984][0.837451,0.290926,0][-0.380784,2.10562,-0.516562][-0.629921,0.732283,-0.251969][0.421529,0.251331,0][-1.22441,1.02858,2e-06][-0.889764,0.456693,0][0.463104,0.034946,0][-0.399524,2.16764,2.4023e-16][-0.645669,0.76378,0][0.470453,0.252933,0][-1.22441,1.02858,2e-06][-0.889764,0.456693,0][0.463104,0.034946,0][-0.380784,2.10562,-0.516562][-0.629921,0.732283,-0.251969][0.421529,0.251331,0][-1.19901,0.973892,-0.438204][-0.874016,0.433071,-0.228346][0.421529,0.034196,0][-0.399524,2.16764,2.4023e-16][-0.645669,0.76378,0][0.460962,0.505517,0][-1.22441,1.02858,2e-06][-0.889764,0.456693,0][0.453612,0.723505,0][-0.380784,2.10562,0.516566][-0.629921,0.732283,0.251969][0.412038,0.507119,0][-1.19901,0.97389,0.438206][-0.874016,0.433071,0.228346][0.412038,0.724255,0][-0.380784,2.10562,0.516566][-0.629921,0.732283,0.251969][0.412038,0.507119,0][-1.22441,1.02858,2e-06][-0.889764,0.456693,0][0.453612,0.723505,0][-0.303498,1.84994,1.06904][-0.574803,0.566929,0.590551][0.363722,0.049163,0][-0.380784,2.10562,0.516566][-0.629921,0.732283,0.251969][0.420685,0.034196,0][-1.19901,0.97389,0.438206][-0.874016,0.433071,0.228346][0.413206,0.250984,0][-0.303498,1.84994,-1.06903][-0.574803,0.566929,-0.590551][0.408528,0.292121,0][-1.19901,0.973892,-0.438204][-0.874016,0.433071,-0.228346][0.359044,0.493942,0][-0.380784,2.10562,-0.516562][-0.629921,0.732283,-0.251969][0.351565,0.277154,0][-0.163571,1.38702,1.36651][-0.385827,0.19685,0.897638][0.351565,0.727484,0][0.97646,1.91185,1.6117][-0.165354,0.299213,0.937008][0.351565,0.528968,0][-0.303498,1.84994,1.06904][-0.574803,0.566929,0.590551][0.404926,0.726208,0][-0.303498,1.84994,-1.06903][-0.574803,0.566929,-0.590551][0.289817,0.731901,0][0.97646,1.91186,-1.6117][-0.165354,0.299213,-0.937008][0.343178,0.534661,0][-0.163571,1.38702,-1.36651][-0.385827,0.19685,-0.897638][0.343178,0.733177,0][-1.09428,0.748392,0.90687][-0.76378,0.322835,0.551181][0.363722,0.261165,0][-0.303498,1.84994,1.06904][-0.574803,0.566929,0.590551][0.363722,0.049163,0][-1.19901,0.97389,0.438206][-0.874016,0.433071,0.228346][0.413206,0.250984,0][-1.19901,0.973892,-0.438204][-0.874016,0.433071,-0.228346][0.359044,0.493942,0][-0.303498,1.84994,-1.06903][-0.574803,0.566929,-0.590551][0.408528,0.292121,0][-1.09428,0.748392,-0.906868][-0.76378,0.322835,-0.551181][0.408528,0.504123,0][-1.09428,0.748392,-0.906868][-0.76378,0.322835,-0.551181][0.198002,0.059438,0][-1.66485,-0.482628,-0.372494][-0.905512,0.354331,-0.228346][0.150535,0.271808,0][-1.19901,0.973892,-0.438204][-0.874016,0.433071,-0.228346][0.150535,0.034196,0][-1.66485,-0.482628,-0.372494][-0.905512,0.354331,-0.228346][0.150535,0.271808,0][-1.09428,0.748392,-0.906868][-0.76378,0.322835,-0.551181][0.198002,0.059438,0][-1.57582,-0.674316,-0.770884][-0.779528,0.267717,-0.566929][0.190886,0.293261,0][-1.19901,0.97389,0.438206][-0.874016,0.433071,0.228346][0.149691,0.034196,0][-1.66485,-0.482628,0.372498][-0.905512,0.354331,0.228346][0.149691,0.271807,0][-1.09428,0.748392,0.90687][-0.76378,0.322835,0.551181][0.102224,0.059438,0][-1.57582,-0.674318,0.770888][-0.779528,0.267717,0.566929][0.109341,0.293261,0][-1.09428,0.748392,0.90687][-0.76378,0.322835,0.551181][0.102224,0.059438,0][-1.66485,-0.482628,0.372498][-0.905512,0.354331,0.228346][0.149691,0.271807,0][-1.22441,1.02858,2e-06][-0.889764,0.456693,0][0.198847,0.518722,0][-1.68644,-0.436142,2e-06][-0.929134,0.370079,0][0.20507,0.280517,0][-1.19901,0.97389,0.438206][-0.874016,0.433071,0.228346][0.240354,0.514762,0][-1.66485,-0.482628,0.372498][-0.905512,0.354331,0.228346][0.240354,0.277154,0][-1.19901,0.97389,0.438206][-0.874016,0.433071,0.228346][0.240354,0.514762,0][-1.68644,-0.436142,2e-06][-0.929134,0.370079,0][0.20507,0.280517,0][-1.19901,0.973892,-0.438204][-0.874016,0.433071,-0.228346][0.241198,0.514762,0][-1.68644,-0.436142,2e-06][-0.929134,0.370079,0][0.276482,0.280517,0][-1.22441,1.02858,2e-06][-0.889764,0.456693,0][0.282706,0.518722,0][-1.68644,-0.436142,2e-06][-0.929134,0.370079,0][0.276482,0.280517,0][-1.19901,0.973892,-0.438204][-0.874016,0.433071,-0.228346][0.241198,0.514762,0][-1.66485,-0.482628,-0.372494][-0.905512,0.354331,-0.228346][0.241198,0.277154,0][3.23208,0.527166,0.569468][0.748031,-0.598425,0.291339][0.929379,0.127282,0][3.3054,0.762512,0.727932][0.834646,-0.385827,0.401575][0.929381,0.139301,0][3.04508,0.44831,0.754878][0.535433,-0.716535,0.448819][0.918114,0.12688,0][3.14226,0.760286,0.964938][0.669291,-0.401575,0.622047][0.918114,0.14281,0][3.04508,0.44831,0.754878][0.535433,-0.716535,0.448819][0.918114,0.12688,0][3.3054,0.762512,0.727932][0.834646,-0.385827,0.401575][0.929381,0.139301,0][3.3054,0.762514,-0.72793][0.834646,-0.385827,-0.401575][0.940757,0.178914,0][3.04508,0.44831,-0.754876][0.535433,-0.716535,-0.448819][0.92949,0.191335,0][3.14226,0.760286,-0.964934][0.669291,-0.401575,-0.622047][0.92949,0.175405,0][3.04508,0.44831,-0.754876][0.535433,-0.716535,-0.448819][0.92949,0.191335,0][3.3054,0.762514,-0.72793][0.834646,-0.385827,-0.401575][0.940757,0.178914,0][3.23208,0.527166,-0.569464][0.748031,-0.598425,-0.291339][0.940755,0.190933,0][2.74148,1.56626,1.47722][0.496063,0.11811,0.858268][0.90012,0.026374,0][1.86288,1.0593,1.644][0.0472441,-0.283465,0.96063][0.929158,0.056938,0][2.5205,0.856702,1.47722][0.322835,-0.377953,0.866142][0.900121,0.056853,0][1.86288,1.0593,1.644][0.0472441,-0.283465,0.96063][0.929158,0.056938,0][2.74148,1.56626,1.47722][0.496063,0.11811,0.858268][0.90012,0.026374,0][2.10882,1.84897,1.644][0.165354,0.267717,0.944882][0.929158,0.02302,0][1.86288,1.0593,-1.644][0.0472441,-0.283465,-0.96063][0.928966,0.146384,0][2.74148,1.56626,-1.47722][0.496063,0.11811,-0.858268][0.899928,0.176948,0][2.5205,0.856704,-1.47722][0.322835,-0.377953,-0.866142][0.89993,0.146469,0][2.74148,1.56626,-1.47722][0.496063,0.11811,-0.858268][0.899928,0.176948,0][1.86288,1.0593,-1.644][0.0472441,-0.283465,-0.96063][0.928966,0.146384,0][2.10882,1.84897,-1.644][0.165354,0.267717,-0.944882][0.928966,0.180302,0][-0.303498,1.84994,1.06904][-0.574803,0.566929,0.590551][0.247277,0.27576,0][-1.09428,0.748392,0.90687][-0.76378,0.322835,0.559055][0.247277,0.063757,0][-0.163571,1.38702,1.36651][-0.385827,0.19685,0.897638][0.294862,0.235857,0][-0.163571,1.38702,-1.36651][-0.385827,0.19685,-0.897638][0.246432,0.074098,0][-1.09428,0.748392,-0.906868][-0.76378,0.322835,-0.559055][0.198847,0.246199,0][-0.303498,1.84994,-1.06903][-0.574803,0.566929,-0.590551][0.198847,0.034196,0][-1.09428,0.748392,0.90687][-0.76378,0.322835,0.559055][0.061192,0.034196,0][-1.57582,-0.674318,0.770888][-0.779528,0.267717,0.566929][0.061192,0.268318,0][-0.904666,0.340118,1.15922][-0.448819,0.0787402,0.889764][0.021848,0.081056,0][-1.41464,-1.02137,0.9854][-0.409449,0.0551181,0.913386][0.027747,0.308149,0][-0.904666,0.340118,1.15922][-0.448819,0.0787402,0.889764][0.021848,0.081056,0][-1.57582,-0.674318,0.770888][-0.779528,0.267717,0.566929][0.061192,0.268318,0][-0.904666,0.340118,-1.15922][-0.448819,0.0787402,-0.889764][0.062036,0.261289,0][-1.57582,-0.674316,-0.770884][-0.779528,0.267717,-0.566929][0.10138,0.074027,0][-1.09428,0.748392,-0.906868][-0.76378,0.322835,-0.559055][0.10138,0.308149,0][-1.57582,-0.674316,-0.770884][-0.779528,0.267717,-0.566929][0.10138,0.074027,0][-0.904666,0.340118,-1.15922][-0.448819,0.0787402,-0.889764][0.062036,0.261289,0][-1.41464,-1.02137,-0.985396][-0.409449,0.0551181,-0.913386][0.067935,0.034196,0][-2.9743,-2.29282,-0.403994][-0.527559,-0.393701,-0.755906][0.935156,0.116088,0][-2.52518,-2.14998,-0.577918][-0.346457,0.0787402,-0.937008][0.923776,0.098914,0][-2.40304,-2.47254,-0.577918][-0.283465,-0.393701,-0.874016][0.935156,0.090513,0][-2.52518,-2.14998,-0.577918][-0.346457,0.0787402,-0.937008][0.923776,0.098914,0][-2.9743,-2.29282,-0.403994][-0.527559,-0.393701,-0.755906][0.935156,0.116088,0][-3.05968,-2.06734,-0.403994][-0.417323,0.0866142,-0.905512][0.9272,0.12196,0][-2.9743,-2.29282,0.404][-0.527559,-0.393701,0.755906][0.76086,0.265591,0][-2.52518,-2.14998,0.577922][-0.346457,0.0787402,0.937008][0.772241,0.248416,0][-3.05968,-2.06734,0.404][-0.417323,0.0866142,0.905512][0.768817,0.271462,0][-2.52518,-2.14998,0.577922][-0.346457,0.0787402,0.937008][0.772241,0.248416,0][-2.9743,-2.29282,0.404][-0.527559,-0.393701,0.755906][0.76086,0.265591,0][-2.40304,-2.47254,0.577922][-0.283465,-0.393701,0.874016][0.76086,0.240016,0][-0.904666,0.340118,1.15922][-0.448819,0.0787402,0.889764][0.292361,0.034196,0][-0.163571,1.38702,1.36651][-0.385827,0.19685,0.897638][0.294862,0.235857,0][-1.09428,0.748392,0.90687][-0.76378,0.322835,0.559055][0.247277,0.063757,0][-1.09428,0.748392,-0.906868][-0.76378,0.322835,-0.559055][0.198847,0.246199,0][-0.163571,1.38702,-1.36651][-0.385827,0.19685,-0.897638][0.246432,0.074098,0][-0.904666,0.340118,-1.15922][-0.448819,0.0787402,-0.889764][0.243931,0.27576,0][-2.06094,-1.53932,0.614516][-0.653543,0.401575,0.637795][0.499917,0.875443,0][-1.57582,-0.674318,0.770888][-0.779528,0.267717,0.566929][0.499917,0.719587,0][-2.12228,-1.38209,0.296938][-0.771654,0.574803,0.275591][0.533305,0.866697,0][-1.57582,-0.674318,0.770888][-0.779528,0.267717,0.566929][0.499917,0.719587,0][-1.66485,-0.482628,0.372498][-0.905512,0.354331,0.228346][0.541928,0.710251,0][-2.12228,-1.38209,0.296938][-0.771654,0.574803,0.275591][0.533305,0.866697,0][-1.57582,-0.674316,-0.770884][-0.779528,0.267717,-0.566929][0.454048,0.734985,0][-2.12228,-1.38209,-0.296936][-0.771654,0.574803,-0.275591][0.420661,0.882095,0][-1.66485,-0.482628,-0.372494][-0.905512,0.354331,-0.228346][0.412038,0.725649,0][-2.12228,-1.38209,-0.296936][-0.771654,0.574803,-0.275591][0.420661,0.882095,0][-1.57582,-0.674316,-0.770884][-0.779528,0.267717,-0.566929][0.454048,0.734985,0][-2.06094,-1.53932,-0.614512][-0.653543,0.401575,-0.637795][0.454048,0.890841,0][-1.66485,-0.482628,-0.372494][-0.905512,0.354331,-0.228346][0.19609,0.295241,0][-2.13716,-1.34396,2e-06][-0.795276,0.606299,0][0.167919,0.451555,0][-1.68644,-0.436142,2e-06][-0.929134,0.370079,0][0.16075,0.294656,0][-2.13716,-1.34396,2e-06][-0.795276,0.606299,0][0.167919,0.451555,0][-1.66485,-0.482628,-0.372494][-0.905512,0.354331,-0.228346][0.19609,0.295241,0][-2.12228,-1.38209,-0.296936][-0.771654,0.574803,-0.275591][0.19609,0.452328,0][-1.68644,-0.436142,2e-06][-0.929134,0.370079,0][0.162662,0.677788,0][-2.13716,-1.34396,2e-06][-0.795276,0.606299,0][0.169832,0.52089,0][-1.66485,-0.482628,0.372498][-0.905512,0.354331,0.228346][0.198002,0.677204,0][-2.12228,-1.38209,0.296938][-0.771654,0.574803,0.275591][0.198002,0.520117,0][-1.66485,-0.482628,0.372498][-0.905512,0.354331,0.228346][0.198002,0.677204,0][-2.13716,-1.34396,2e-06][-0.795276,0.606299,0][0.169832,0.52089,0][-1.41464,-1.02137,-0.985396][-0.409449,0.0551181,-0.913386][0.516036,0.306298,0][-2.06094,-1.53932,-0.614512][-0.653543,0.401575,-0.637795][0.478769,0.433017,0][-1.57582,-0.674316,-0.770884][-0.779528,0.267717,-0.566929][0.478769,0.277154,0][-1.57582,-0.674318,0.770888][-0.779528,0.267717,0.566929][0.499073,0.710251,0][-2.06094,-1.53932,0.614516][-0.653543,0.401575,0.637795][0.499073,0.866114,0][-1.41464,-1.02137,0.9854][-0.409449,0.0551181,0.913386][0.461807,0.739394,0][-1.94986,-1.82399,0.785516][-0.377953,0.0629921,0.92126][0.470042,0.891726,0][-1.41464,-1.02137,0.9854][-0.409449,0.0551181,0.913386][0.461807,0.739394,0][-2.06094,-1.53932,0.614516][-0.653543,0.401575,0.637795][0.499073,0.866114,0][-2.06094,-1.53932,-0.614512][-0.653543,0.401575,-0.637795][0.488292,0.485571,0][-1.41464,-1.02137,-0.985396][-0.409449,0.0551181,-0.913386][0.50151,0.450781,0][-1.94986,-1.82399,-0.785512][-0.377953,0.0629921,-0.92126][0.50151,0.491185,0][-1.78484,-2.24692,0.785516][-0.0551181,-0.330709,0.944882][0.948298,0.051312,0][-2.52518,-2.14998,0.577922][-0.346457,0.0787402,0.937008][0.93356,0.023154,0][-2.40304,-2.47254,0.577922][-0.283465,-0.393701,0.874016][0.947705,0.02302,0][-2.52518,-2.14998,0.577922][-0.346457,0.0787402,0.937008][0.93356,0.023154,0][-1.78484,-2.24692,0.785516][-0.0551181,-0.330709,0.944882][0.948298,0.051312,0][-1.94986,-1.82399,0.785516][-0.377953,0.0629921,0.92126][0.929681,0.051312,0][-1.78484,-2.24692,-0.785512][-0.0551181,-0.330709,-0.944882][0.933171,0.253977,0][-2.52518,-2.14998,-0.577918][-0.346457,0.0787402,-0.937008][0.947909,0.225818,0][-1.94986,-1.82399,-0.785512][-0.377953,0.0629921,-0.92126][0.951788,0.253977,0][-2.52518,-2.14998,-0.577918][-0.346457,0.0787402,-0.937008][0.947909,0.225818,0][-1.78484,-2.24692,-0.785512][-0.0551181,-0.330709,-0.944882][0.933171,0.253977,0][-2.40304,-2.47254,-0.577918][-0.283465,-0.393701,-0.874016][0.933764,0.225685,0][1.86288,1.0593,1.644][0.0472441,-0.283465,0.96063][0.687234,0.163982,0][0.97646,1.91185,1.6117][-0.165354,0.299213,0.937008][0.720131,0.202239,0][0.990168,1.09532,1.6117][-0.0866142,-0.259843,0.96063][0.686729,0.199827,0][0.97646,1.91185,1.6117][-0.165354,0.299213,0.937008][0.720131,0.202239,0][1.86288,1.0593,1.644][0.0472441,-0.283465,0.96063][0.687234,0.163982,0][2.10882,1.84897,1.644][0.165354,0.267717,0.944882][0.720131,0.155711,0][0.97646,1.91186,-1.6117][-0.165354,0.299213,-0.937008][0.785957,0.199987,0][1.86288,1.0593,-1.644][0.0472441,-0.283465,-0.96063][0.818855,0.161731,0][0.990168,1.09532,-1.6117][-0.0866142,-0.259843,-0.96063][0.81936,0.197576,0][1.86288,1.0593,-1.644][0.0472441,-0.283465,-0.96063][0.818855,0.161731,0][0.97646,1.91186,-1.6117][-0.165354,0.299213,-0.937008][0.785957,0.199987,0][2.10882,1.84897,-1.644][0.165354,0.267717,-0.944882][0.785957,0.15346,0][2.8305,0.802422,1.24493][0.543307,-0.401575,0.740157][0.945036,0.287633,0][3.04508,0.44831,0.754878][0.535433,-0.716535,0.448819][0.928333,0.307962,0][3.14226,0.760286,0.964938][0.669291,-0.401575,0.622047][0.928334,0.29203,0][3.04508,0.44831,0.754878][0.535433,-0.716535,0.448819][0.928333,0.307962,0][2.8305,0.802422,1.24493][0.543307,-0.401575,0.740157][0.945036,0.287633,0][2.70514,0.399924,0.97392][0.377953,-0.76378,0.519685][0.945036,0.308185,0][2.8305,0.802424,-1.24493][0.543307,-0.401575,-0.740157][0.895016,0.088868,0][3.04508,0.44831,-0.754876][0.527559,-0.716535,-0.448819][0.878313,0.068539,0][2.70514,0.399924,-0.973918][0.377953,-0.76378,-0.519685][0.895016,0.068316,0][3.04508,0.44831,-0.754876][0.527559,-0.716535,-0.448819][0.878313,0.068539,0][2.8305,0.802424,-1.24493][0.543307,-0.401575,-0.740157][0.895016,0.088868,0][3.14226,0.760286,-0.964934][0.669291,-0.401575,-0.622047][0.878314,0.084471,0][-1.78484,-2.24692,0.785516][-0.0551181,-0.330709,0.944882][0.845839,0.073878,0][-1.17518,-1.53697,0.9854][0.125984,-0.244094,0.96063][0.841192,0.034912,0][-1.94986,-1.82399,0.785516][-0.377953,0.0629921,0.92126][0.861246,0.063425,0][-1.17518,-1.53697,0.9854][0.125984,-0.244094,0.96063][0.841192,0.034912,0][-1.41464,-1.02137,0.9854][-0.401575,0.0551181,0.913386][0.861246,0.02302,0][-1.94986,-1.82399,0.785516][-0.377953,0.0629921,0.92126][0.861246,0.063425,0][-1.17518,-1.53697,-0.985396][0.125984,-0.244094,-0.96063][0.86519,0.158276,0][-1.94986,-1.82399,-0.785512][-0.377953,0.0629921,-0.92126][0.845137,0.186789,0][-1.41464,-1.02137,-0.985396][-0.401575,0.0551181,-0.913386][0.845137,0.146384,0][-1.94986,-1.82399,-0.785512][-0.377953,0.0629921,-0.92126][0.845137,0.186789,0][-1.17518,-1.53697,-0.985396][0.125984,-0.244094,-0.96063][0.86519,0.158276,0][-1.78484,-2.24692,-0.785512][-0.0551181,-0.330709,-0.944882][0.860543,0.197242,0][-0.163571,1.38702,1.36651][-0.385827,0.19685,0.905512][0.83876,0.075427,0][0.990168,1.09532,1.6117][-0.0866142,-0.259843,0.96063][0.809444,0.035133,0][0.97646,1.91185,1.6117][-0.165354,0.299213,0.937008][0.840669,0.02302,0][0.990168,1.09532,1.6117][-0.0866142,-0.259843,0.96063][0.809444,0.035133,0][-0.163571,1.38702,1.36651][-0.385827,0.19685,0.905512][0.83876,0.075427,0][0.0443134,0.699286,1.36651][-0.0629921,-0.251969,0.968504][0.809444,0.078374,0][0.990168,1.09532,-1.6117][-0.0866142,-0.259843,-0.96063][0.717954,0.111947,0][-0.163571,1.38702,-1.36651][-0.385827,0.19685,-0.905512][0.688638,0.152241,0][0.97646,1.91186,-1.6117][-0.165354,0.299213,-0.937008][0.686729,0.099834,0][-0.163571,1.38702,-1.36651][-0.385827,0.19685,-0.905512][0.688638,0.152241,0][0.990168,1.09532,-1.6117][-0.0866142,-0.259843,-0.96063][0.717954,0.111947,0][0.0443134,0.699288,-1.36651][-0.0629921,-0.251969,-0.968504][0.717954,0.155188,0][-0.622962,-0.266438,1.15922][0.102362,-0.228346,0.968504][0.76086,0.089989,0][0.0443134,0.699286,1.36651][-0.0629921,-0.251969,0.968504][0.76086,0.041103,0][-0.904666,0.340118,1.15922][-0.448819,0.0787402,0.889764][0.784629,0.076302,0][0.0443134,0.699286,1.36651][-0.0629921,-0.251969,0.968504][0.76086,0.041103,0][-0.163571,1.38702,1.36651][-0.385827,0.19685,0.905512][0.784124,0.02302,0][-0.904666,0.340118,1.15922][-0.448819,0.0787402,0.889764][0.784629,0.076302,0][0.0443134,0.699288,-1.36651][-0.0629921,-0.251969,-0.968504][0.785152,0.071906,0][-0.904666,0.340118,-1.15922][-0.448819,0.0787402,-0.889764][0.80892,0.036707,0][-0.163571,1.38702,-1.36651][-0.385827,0.19685,-0.905512][0.808415,0.089989,0][-0.904666,0.340118,-1.15922][-0.448819,0.0787402,-0.889764][0.80892,0.036707,0][0.0443134,0.699288,-1.36651][-0.0629921,-0.251969,-0.968504][0.785152,0.071906,0][-0.622962,-0.266436,-1.15922][0.102362,-0.228346,-0.968504][0.785152,0.02302,0][2.5205,0.856702,1.47722][0.322835,-0.377953,0.866142][0.836567,0.272426,0][2.70514,0.399924,0.97392][0.377953,-0.76378,0.519685][0.820971,0.296738,0][2.8305,0.802422,1.24493][0.543307,-0.401575,0.740157][0.820972,0.276184,0][2.70514,0.399924,0.97392][0.377953,-0.76378,0.519685][0.820971,0.296738,0][2.5205,0.856702,1.47722][0.322835,-0.377953,0.866142][0.836567,0.272426,0][2.37174,0.379098,1.15564][0.141732,-0.787402,0.598425][0.836567,0.296813,0][2.5205,0.856704,-1.47722][0.322835,-0.377953,-0.866142][0.803621,0.271034,0][2.70514,0.399924,-0.973918][0.377953,-0.76378,-0.519685][0.819215,0.295347,0][2.37174,0.3791,-1.15564][0.141732,-0.787402,-0.598425][0.803619,0.295421,0][2.70514,0.399924,-0.973918][0.377953,-0.76378,-0.519685][0.819215,0.295347,0][2.5205,0.856704,-1.47722][0.322835,-0.377953,-0.866142][0.803621,0.271034,0][2.8305,0.802424,-1.24493][0.543307,-0.401575,-0.740157][0.819215,0.274792,0][2.99142,0.275996,-0.36476][0.440945,-0.874016,-0.19685][0.896524,0.144507,0][3.04508,0.44831,-0.754876][0.535433,-0.716535,-0.448819][0.896522,0.12688,0][3.23208,0.527166,-0.569464][0.748031,-0.598425,-0.291339][0.906794,0.131525,0][2.99142,0.275996,-0.36476][0.440945,-0.874016,-0.19685][0.896524,0.144507,0][3.23208,0.527166,-0.569464][0.748031,-0.598425,-0.291339][0.906794,0.131525,0][3.1916,0.397174,-0.275168][0.692913,-0.708661,-0.133858][0.906794,0.144825,0][3.23208,0.527166,0.569468][0.748031,-0.598425,0.291339][0.91759,0.14018,0][2.99142,0.275996,0.364762][0.440945,-0.874016,0.19685][0.90732,0.127198,0][3.1916,0.397174,0.275172][0.692913,-0.708661,0.133858][0.91759,0.12688,0][2.99142,0.275996,0.364762][0.440945,-0.874016,0.19685][0.90732,0.127198,0][3.23208,0.527166,0.569468][0.748031,-0.598425,0.291339][0.91759,0.14018,0][3.04508,0.44831,0.754878][0.535433,-0.716535,0.448819][0.907318,0.144825,0][-0.904666,0.340118,1.15922][-0.448819,0.0787402,0.889764][0.706406,0.02302,0][-1.41464,-1.02137,0.9854][-0.401575,0.0551181,0.913386][0.706406,0.083069,0][-0.622962,-0.266438,1.15922][0.102362,-0.228346,0.968504][0.686729,0.042127,0][-1.17518,-1.53697,0.9854][0.125984,-0.244094,0.96063][0.689679,0.09931,0][-0.622962,-0.266438,1.15922][0.102362,-0.228346,0.968504][0.686729,0.042127,0][-1.41464,-1.02137,0.9854][-0.401575,0.0551181,0.913386][0.706406,0.083069,0][-0.622962,-0.266436,-1.15922][0.102362,-0.228346,-0.968504][0.726607,0.042127,0][-1.41464,-1.02137,-0.985396][-0.401575,0.0551181,-0.913386][0.70693,0.083069,0][-0.904666,0.340118,-1.15922][-0.448819,0.0787402,-0.889764][0.70693,0.02302,0][-1.41464,-1.02137,-0.985396][-0.401575,0.0551181,-0.913386][0.70693,0.083069,0][-0.622962,-0.266436,-1.15922][0.102362,-0.228346,-0.968504][0.726607,0.042127,0][-1.17518,-1.53697,-0.985396][0.125984,-0.244094,-0.96063][0.723657,0.09931,0][-2.52518,-2.14998,0.577922][-0.346457,0.0787402,0.937008][0.535021,0.141743,0][-1.94986,-1.82399,0.785516][-0.377953,0.0629921,0.92126][0.533255,0.034196,0][-2.60738,-1.93286,0.452112][-0.385827,0.574803,0.716535][0.55984,0.141225,0][-1.94986,-1.82399,0.785516][-0.377953,0.0629921,0.92126][0.533255,0.034196,0][-2.06094,-1.53932,0.614516][-0.653543,0.401575,0.637795][0.566167,0.034196,0][-2.60738,-1.93286,0.452112][-0.385827,0.574803,0.716535][0.55984,0.141225,0][-1.94986,-1.82399,-0.785512][-0.377953,0.0629921,-0.92126][0.556677,0.505517,0][-2.60738,-1.93286,-0.452108][-0.385827,0.574803,-0.716535][0.530092,0.612547,0][-2.06094,-1.53932,-0.614512][-0.653543,0.401575,-0.637795][0.523764,0.505517,0][-2.60738,-1.93286,-0.452108][-0.385827,0.574803,-0.716535][0.530092,0.612547,0][-1.94986,-1.82399,-0.785512][-0.377953,0.0629921,-0.92126][0.556677,0.505517,0][-2.52518,-2.14998,-0.577918][-0.346457,0.0787402,-0.937008][0.55491,0.613065,0][-1.67376,-2.53158,0.614516][0.244094,-0.700787,0.669291][0.865377,0.069488,0][-1.014,-1.88402,0.770888][0.566929,-0.503937,0.653543][0.861769,0.031206,0][-1.78484,-2.24692,0.785516][-0.0551181,-0.330709,0.944882][0.877789,0.062264,0][-1.014,-1.88402,0.770888][0.566929,-0.503937,0.653543][0.861769,0.031206,0][-1.17518,-1.53697,0.9854][0.125984,-0.244094,0.96063][0.877789,0.02302,0][-1.78484,-2.24692,0.785516][-0.0551181,-0.330709,0.944882][0.877789,0.062264,0][-1.014,-1.88402,-0.770884][0.566929,-0.503937,-0.653543][0.874191,0.098699,0][-1.78484,-2.24692,-0.785512][-0.0551181,-0.330709,-0.944882][0.858171,0.129757,0][-1.17518,-1.53697,-0.985396][0.125984,-0.244094,-0.96063][0.858171,0.090513,0][-1.78484,-2.24692,-0.785512][-0.0551181,-0.330709,-0.944882][0.858171,0.129757,0][-1.014,-1.88402,-0.770884][0.566929,-0.503937,-0.653543][0.874191,0.098699,0][-1.67376,-2.53158,-0.614512][0.244094,-0.700787,-0.669291][0.870583,0.136981,0][3.1916,0.397174,0.275172][0.692913,-0.708661,0.125984][0.967047,0.085277,0][2.9784,0.23421,2e-06][0.417323,-0.913386,0][0.957157,0.073003,0][3.18178,0.365652,2e-06][0.685039,-0.732283,0][0.967046,0.073909,0][2.9784,0.23421,2e-06][0.417323,-0.913386,0][0.957157,0.073003,0][3.1916,0.397174,0.275172][0.692913,-0.708661,0.125984][0.967047,0.085277,0][2.99142,0.275996,0.364762][0.440945,-0.874016,0.19685][0.957157,0.088068,0][3.1916,0.397174,-0.275168][0.692913,-0.708661,-0.133858][0.94128,0.187679,0][2.9784,0.23421,2e-06][0.417323,-0.913386,0][0.95117,0.175405,0][2.99142,0.275996,-0.36476][0.440945,-0.874016,-0.19685][0.95117,0.190471,0][2.9784,0.23421,2e-06][0.417323,-0.913386,0][0.95117,0.175405,0][3.1916,0.397174,-0.275168][0.692913,-0.708661,-0.133858][0.94128,0.187679,0][3.18178,0.365652,2e-06][0.685039,-0.732283,0][0.941282,0.176312,0][-3.50968,-1.84387,-0.123092][-0.826772,-0.0787402,-0.559055][0.282706,0.609476,0][-3.11714,-1.91556,-0.316046][-0.204724,0.661417,-0.716535][0.272183,0.542901,0][-3.05968,-2.06734,-0.403994][-0.425197,0.0866142,-0.905512][0.282706,0.520117,0][-3.52718,-1.79763,-0.096294][-0.771654,0.393701,-0.503937][0.2795,0.616417,0][-3.11714,-1.91556,-0.316046][-0.204724,0.661417,-0.716535][0.272183,0.542901,0][-3.50968,-1.84387,-0.123092][-0.826772,-0.0787402,-0.559055][0.282706,0.609476,0][-3.50968,-1.84387,0.123098][-0.818898,-0.0787402,0.566929][0.271339,0.527058,0][-3.11714,-1.91556,0.316052][-0.204724,0.661417,0.716535][0.260816,0.593633,0][-3.52718,-1.79763,0.0963][-0.771654,0.393701,0.503937][0.268133,0.520117,0][-3.11714,-1.91556,0.316052][-0.204724,0.661417,0.716535][0.260816,0.593633,0][-3.50968,-1.84387,0.123098][-0.818898,-0.0787402,0.566929][0.271339,0.527058,0][-3.05968,-2.06734,0.404][-0.417323,0.0866142,0.905512][0.271339,0.616417,0][-1.014,-1.88402,0.770888][0.566929,-0.503937,0.653543][0.865713,0.191875,0][-1.61241,-2.68882,0.296938][0.393701,-0.866142,0.299213][0.865713,0.146384,0][-0.924972,-2.0757,0.372498][0.748031,-0.606299,0.275591][0.880789,0.18116,0][-1.014,-1.88402,-0.770884][0.566929,-0.503937,-0.653543][0.881312,0.146384,0][-1.61241,-2.68882,-0.296936][0.393701,-0.866142,-0.299213][0.899405,0.188122,0][-1.67376,-2.53158,-0.614512][0.244094,-0.700787,-0.669291][0.885069,0.18465,0][-1.61241,-2.68882,-0.296936][0.393701,-0.866142,-0.299213][0.899405,0.188122,0][-1.014,-1.88402,-0.770884][0.566929,-0.503937,-0.653543][0.881312,0.146384,0][-0.924972,-2.0757,-0.372494][0.748031,-0.606299,-0.275591][0.899405,0.150218,0][1.86288,1.0593,1.644][0.0472441,-0.283465,0.96063][0.955282,0.222044,0][2.37174,0.379098,1.15564][0.141732,-0.787402,0.598425][0.928153,0.192398,0][2.5205,0.856702,1.47722][0.314961,-0.377953,0.874016][0.952531,0.193138,0][2.37174,0.379098,1.15564][0.141732,-0.787402,0.598425][0.928153,0.192398,0][1.86288,1.0593,1.644][0.0472441,-0.283465,0.96063][0.955282,0.222044,0][1.69733,0.527778,1.28612][-0.0472441,-0.755906,0.653543][0.928153,0.221223,0][-2.12228,-1.38209,0.296938][-0.771654,0.574803,0.275591][0.567058,0.143138,0][-2.60738,-1.93286,0.452112][-0.385827,0.574803,0.716535][0.539328,0.250208,0][-2.06094,-1.53932,0.614516][-0.653543,0.401575,0.637795][0.533255,0.143138,0][-2.60738,-1.93286,0.452112][-0.385827,0.574803,0.716535][0.539328,0.250208,0][-2.12228,-1.38209,0.296938][-0.771654,0.574803,0.275591][0.567058,0.143138,0][-2.65278,-1.81294,0.218466][-0.377953,0.866142,0.322835][0.56438,0.249831,0][-1.61241,-2.68882,0.296938][0.393701,-0.866142,0.299213][0.748565,0.137728,0][-1.014,-1.88402,0.770888][0.566929,-0.503937,0.653543][0.748565,0.092236,0][-1.67376,-2.53158,0.614516][0.244094,-0.700787,0.669291][0.760337,0.128842,0][1.86288,1.0593,-1.644][0.0472441,-0.283465,-0.96063][0.927809,0.258611,0][2.37174,0.3791,-1.15564][0.141732,-0.787402,-0.598425][0.90068,0.288257,0][1.69733,0.527778,-1.28612][-0.0472441,-0.755906,-0.653543][0.90068,0.259432,0][2.37174,0.3791,-1.15564][0.141732,-0.787402,-0.598425][0.90068,0.288257,0][1.86288,1.0593,-1.644][0.0472441,-0.283465,-0.96063][0.927809,0.258611,0][2.5205,0.856704,-1.47722][0.314961,-0.377953,-0.874016][0.925058,0.287517,0][-2.06094,-1.53932,-0.614512][-0.653543,0.401575,-0.637795][0.576575,0.710251,0][-2.60738,-1.93286,-0.452108][-0.385827,0.574803,-0.716535][0.570502,0.81732,0][-2.12228,-1.38209,-0.296936][-0.771654,0.574803,-0.275591][0.542772,0.710251,0][-2.65278,-1.81294,-0.218462][-0.377953,0.866142,-0.322835][0.545451,0.816944,0][-2.12228,-1.38209,-0.296936][-0.771654,0.574803,-0.275591][0.542772,0.710251,0][-2.60738,-1.93286,-0.452108][-0.385827,0.574803,-0.716535][0.570502,0.81732,0][0.0443134,0.699286,1.36651][-0.0629921,-0.251969,0.968504][0.762489,0.15742,0][0.999396,0.545702,1.26085][0.0314961,-0.740157,0.677165][0.785434,0.190073,0][0.990168,1.09532,1.6117][-0.0866142,-0.259843,0.96063][0.76086,0.200628,0][0.999396,0.545702,1.26085][0.0314961,-0.740157,0.677165][0.785434,0.190073,0][0.0443134,0.699286,1.36651][-0.0629921,-0.251969,0.968504][0.762489,0.15742,0][0.184241,0.236368,1.06904][0.346457,-0.637795,0.692913][0.785434,0.15346,0][0.0443134,0.699288,-1.36651][-0.0629921,-0.251969,-0.968504][0.750076,0.156636,0][0.999396,0.545704,-1.26084][0.0314961,-0.740157,-0.677165][0.727131,0.189289,0][0.184241,0.23637,-1.06903][0.346457,-0.637795,-0.692913][0.727131,0.152676,0][0.999396,0.545704,-1.26084][0.0314961,-0.740157,-0.677165][0.727131,0.189289,0][0.0443134,0.699288,-1.36651][-0.0629921,-0.251969,-0.968504][0.750076,0.156636,0][0.990168,1.09532,-1.6117][-0.0866142,-0.259843,-0.96063][0.751704,0.199843,0][2.6359,0.17761,-0.470604][0.275591,-0.937008,-0.228346][0.954528,0.305121,0][2.70514,0.399924,-0.973918][0.377953,-0.76378,-0.519685][0.954525,0.282379,0][3.04508,0.44831,-0.754876][0.527559,-0.724409,-0.448819][0.970258,0.287993,0][2.6359,0.17761,-0.470604][0.275591,-0.937008,-0.228346][0.954528,0.305121,0][3.04508,0.44831,-0.754876][0.527559,-0.724409,-0.448819][0.970258,0.287993,0][2.99142,0.275996,-0.36476][0.440945,-0.874016,-0.19685][0.970258,0.305623,0][2.6359,0.17761,0.470606][0.275591,-0.937008,0.228346][0.954528,0.259113,0][3.04508,0.44831,0.754878][0.527559,-0.724409,0.448819][0.970258,0.276241,0][2.70514,0.399924,0.97392][0.377953,-0.76378,0.519685][0.954525,0.281855,0][3.04508,0.44831,0.754878][0.527559,-0.724409,0.448819][0.970258,0.276241,0][2.6359,0.17761,0.470606][0.275591,-0.937008,0.228346][0.954528,0.259113,0][2.99142,0.275996,0.364762][0.440945,-0.874016,0.19685][0.970258,0.258611,0][0.990168,1.09532,1.6117][-0.0866142,-0.259843,0.96063][0.923253,0.126357,0][1.69733,0.527778,1.28612][-0.0472441,-0.755906,0.653543][0.89688,0.096935,0][1.86288,1.0593,1.644][0.0472441,-0.283465,0.96063][0.923253,0.090513,0][1.69733,0.527778,1.28612][-0.0472441,-0.755906,0.653543][0.89688,0.096935,0][0.990168,1.09532,1.6117][-0.0866142,-0.259843,0.96063][0.923253,0.126357,0][0.999396,0.545702,1.26085][0.0314961,-0.740157,0.677165][0.896522,0.125586,0][0.990168,1.09532,-1.6117][-0.0866142,-0.259843,-0.96063][0.686729,0.238606,0][1.69733,0.527778,-1.28612][-0.0472441,-0.755906,-0.653543][0.713101,0.209185,0][0.999396,0.545704,-1.26084][0.0314961,-0.740157,-0.677165][0.71346,0.237836,0][1.69733,0.527778,-1.28612][-0.0472441,-0.755906,-0.653543][0.713101,0.209185,0][0.990168,1.09532,-1.6117][-0.0866142,-0.259843,-0.96063][0.686729,0.238606,0][1.86288,1.0593,-1.644][0.0472441,-0.283465,-0.96063][0.686729,0.202762,0][0.0443134,0.699286,1.36651][-0.0629921,-0.251969,0.968504][0.820447,0.090513,0][-0.622962,-0.266438,1.15922][0.102362,-0.228346,0.968504][0.820447,0.139397,0][0.184241,0.236368,1.06904][0.346457,-0.637795,0.692913][0.802063,0.104802,0][-0.433348,-0.67471,0.90687][0.622047,-0.448819,0.637795][0.802385,0.150429,0][0.184241,0.236368,1.06904][0.346457,-0.637795,0.692913][0.802063,0.104802,0][-0.622962,-0.266438,1.15922][0.102362,-0.228346,0.968504][0.820447,0.139397,0][0.184241,0.23637,-1.06903][0.346457,-0.637795,-0.692913][0.745515,0.106526,0][-0.622962,-0.266436,-1.15922][0.102362,-0.228346,-0.968504][0.727131,0.141121,0][0.0443134,0.699288,-1.36651][-0.0629921,-0.251969,-0.968504][0.727131,0.092236,0][-0.622962,-0.266436,-1.15922][0.102362,-0.228346,-0.968504][0.727131,0.141121,0][0.184241,0.23637,-1.06903][0.346457,-0.637795,-0.692913][0.745515,0.106526,0][-0.433348,-0.674708,-0.906868][0.622047,-0.448819,-0.637795][0.745193,0.152152,0][-0.903382,-2.1222,2e-06][0.779528,-0.622047,0][0.86519,0.198351,0][-1.61241,-2.68882,-0.296936][0.393701,-0.866142,-0.299213][0.85291,0.23554,0][-0.924972,-2.0757,-0.372494][0.748031,-0.606299,-0.275591][0.849781,0.197766,0][-1.61241,-2.68882,-0.296936][0.393701,-0.866142,-0.299213][0.85291,0.23554,0][-0.903382,-2.1222,2e-06][0.779528,-0.622047,0][0.86519,0.198351,0][-1.59753,-2.72694,2e-06][0.425197,-0.905512,0][0.86519,0.236107,0][-1.61241,-2.68882,0.296938][0.393701,-0.866142,0.299213][0.76399,0.201717,0][-0.903382,-2.1222,2e-06][0.779528,-0.622047,0][0.776269,0.238907,0][-0.924972,-2.0757,0.372498][0.748031,-0.606299,0.275591][0.76086,0.239492,0][-0.903382,-2.1222,2e-06][0.779528,-0.622047,0][0.776269,0.238907,0][-1.61241,-2.68882,0.296938][0.393701,-0.866142,0.299213][0.76399,0.201717,0][-1.59753,-2.72694,2e-06][0.425197,-0.905512,0][0.776269,0.201151,0][-2.13716,-1.34396,2e-06][-0.795276,0.606299,0][0.198002,0.787095,0][-2.65278,-1.81294,0.218466][-0.377953,0.866142,0.322835][0.174463,0.893612,0][-2.12228,-1.38209,0.296938][-0.771654,0.574803,0.275591][0.169829,0.787095,0][-2.65278,-1.81294,0.218466][-0.377953,0.866142,0.322835][0.174463,0.893612,0][-2.13716,-1.34396,2e-06][-0.795276,0.606299,0][0.198002,0.787095,0][-2.6638,-1.78386,2e-06][-0.370079,0.929134,0][0.195205,0.893513,0][-2.12228,-1.38209,-0.296936][-0.771654,0.574803,-0.275591][0.198002,0.679183,0][-2.65278,-1.81294,-0.218462][-0.377953,0.866142,-0.322835][0.193368,0.7857,0][-2.13716,-1.34396,2e-06][-0.795276,0.606299,0][0.169829,0.679183,0][-2.6638,-1.78386,2e-06][-0.370079,0.929134,0][0.172626,0.785601,0][-2.13716,-1.34396,2e-06][-0.795276,0.606299,0][0.169829,0.679183,0][-2.65278,-1.81294,-0.218462][-0.377953,0.866142,-0.322835][0.193368,0.7857,0][-0.622962,-0.266438,1.15922][0.102362,-0.228346,0.968504][0.760337,0.02302,0][-1.17518,-1.53697,0.9854][0.125984,-0.244094,0.96063][0.760337,0.08028,0][-0.433348,-0.67471,0.90687][0.622047,-0.448819,0.637795][0.743996,0.036469,0][-1.014,-1.88402,0.770888][0.566929,-0.503937,0.653543][0.746446,0.091713,0][-0.433348,-0.67471,0.90687][0.622047,-0.448819,0.637795][0.743996,0.036469,0][-1.17518,-1.53697,0.9854][0.125984,-0.244094,0.96063][0.760337,0.08028,0][-0.433348,-0.674708,-0.906868][0.622047,-0.448819,-0.637795][0.743472,0.036469,0][-1.17518,-1.53697,-0.985396][0.125984,-0.244094,-0.96063][0.727131,0.08028,0][-0.622962,-0.266436,-1.15922][0.102362,-0.228346,-0.968504][0.727131,0.02302,0][-1.17518,-1.53697,-0.985396][0.125984,-0.244094,-0.96063][0.727131,0.08028,0][-0.433348,-0.674708,-0.906868][0.622047,-0.448819,-0.637795][0.743472,0.036469,0][-1.014,-1.88402,-0.770884][0.566929,-0.503937,-0.653543][0.741022,0.091713,0][2.28958,0.115306,0.558414][0.0393701,-0.968504,0.259843][0.701594,0.297472,0][2.70514,0.399924,0.97392][0.377953,-0.76378,0.519685][0.686729,0.275199,0][2.37174,0.379098,1.15564][0.141732,-0.787402,0.598425][0.701596,0.270487,0][2.70514,0.399924,0.97392][0.377953,-0.76378,0.519685][0.686729,0.275199,0][2.28958,0.115306,0.558414][0.0393701,-0.968504,0.259843][0.701594,0.297472,0][2.6359,0.17761,0.470606][0.275591,-0.937008,0.228346][0.686729,0.297944,0][2.28958,0.115306,-0.558412][0.0393701,-0.968504,-0.259843][0.702121,0.297472,0][2.37174,0.3791,-1.15564][0.141732,-0.787402,-0.598425][0.702119,0.270486,0][2.70514,0.399924,-0.973918][0.377953,-0.76378,-0.519685][0.716986,0.275199,0][2.28958,0.115306,-0.558412][0.0393701,-0.968504,-0.259843][0.702121,0.297472,0][2.70514,0.399924,-0.973918][0.377953,-0.76378,-0.519685][0.716986,0.275199,0][2.6359,0.17761,-0.470604][0.275591,-0.937008,-0.228346][0.716986,0.297944,0][2.99142,0.275996,0.364762][0.440945,-0.874016,0.19685][0.971065,0.186075,0][2.6191,0.123696,-1.00806e-17][0.244094,-0.968504,0][0.955682,0.169972,0][2.9784,0.23421,2e-06][0.417323,-0.913386,0][0.971063,0.171007,0][2.6191,0.123696,-1.00806e-17][0.244094,-0.968504,0][0.955682,0.169972,0][2.99142,0.275996,0.364762][0.440945,-0.874016,0.19685][0.971065,0.186075,0][2.6359,0.17761,0.470606][0.275591,-0.937008,0.228346][0.955682,0.189409,0][2.6191,0.123696,-1.00806e-17][0.244094,-0.968504,0][0.916063,0.28878,0][2.99142,0.275996,-0.36476][0.440945,-0.874016,-0.19685][0.90068,0.304883,0][2.9784,0.23421,2e-06][0.417323,-0.913386,0][0.900682,0.289816,0][2.99142,0.275996,-0.36476][0.440945,-0.874016,-0.19685][0.90068,0.304883,0][2.6191,0.123696,-1.00806e-17][0.244094,-0.968504,0][0.916063,0.28878,0][2.6359,0.17761,-0.470604][0.275591,-0.937008,-0.228346][0.916063,0.308217,0][2.26966,0.051334,-1.89423e-17][0.015748,-1,0][0.955805,0.215463,0][2.6359,0.17761,-0.470604][0.275591,-0.937008,-0.228346][0.970417,0.19518,0][2.6191,0.123696,-1.00806e-17][0.244094,-0.968504,0][0.970415,0.214619,0][2.6359,0.17761,-0.470604][0.275591,-0.937008,-0.228346][0.970417,0.19518,0][2.26966,0.051334,-1.89423e-17][0.015748,-1,0][0.955805,0.215463,0][2.28958,0.115306,-0.558412][0.0393701,-0.968504,-0.259843][0.955805,0.192398,0][2.6359,0.17761,0.470606][0.275591,-0.937008,0.228346][0.955682,0.149165,0][2.26966,0.051334,-1.89423e-17][0.015748,-1,0][0.970294,0.169448,0][2.6191,0.123696,-1.00806e-17][0.244094,-0.968504,0][0.955683,0.168604,0][2.26966,0.051334,-1.89423e-17][0.015748,-1,0][0.970294,0.169448,0][2.6359,0.17761,0.470606][0.275591,-0.937008,0.228346][0.955682,0.149165,0][2.28958,0.115306,0.558414][0.0393701,-0.968504,0.259843][0.970294,0.146384,0][-2.60738,-1.93286,0.452112][-0.385827,0.574803,0.716535][0.10138,0.438022,0][-3.05968,-2.06734,0.404][-0.417323,0.0866142,0.905512][0.08079,0.50333,0][-2.52518,-2.14998,0.577922][-0.346457,0.0787402,0.937008][0.08079,0.415133,0][-3.05968,-2.06734,0.404][-0.417323,0.0866142,0.905512][0.08079,0.50333,0][-2.60738,-1.93286,0.452112][-0.385827,0.574803,0.716535][0.10138,0.438022,0][-3.11714,-1.91556,0.316052][-0.204724,0.661417,0.716535][0.095184,0.519328,0][-3.05968,-2.06734,-0.403994][-0.417323,0.0866142,-0.905512][0.10138,0.397741,0][-2.60738,-1.93286,-0.452108][-0.385827,0.574803,-0.716535][0.08079,0.332432,0][-2.52518,-2.14998,-0.577918][-0.346457,0.0787402,-0.937008][0.10138,0.309543,0][-2.60738,-1.93286,-0.452108][-0.385827,0.574803,-0.716535][0.08079,0.332432,0][-3.05968,-2.06734,-0.403994][-0.417323,0.0866142,-0.905512][0.10138,0.397741,0][-3.11714,-1.91556,-0.316046][-0.204724,0.661417,-0.716535][0.086985,0.413738,0][0.184241,0.236368,1.06904][0.346457,-0.637795,0.692913][0.810928,0.236939,0][1.00449,0.242136,0.609248][0.133858,-0.952756,0.283465][0.785958,0.207551,0][0.999396,0.545702,1.26085][0.0314961,-0.740157,0.669291][0.814586,0.200511,0][1.00449,0.242136,0.609248][0.133858,-0.952756,0.283465][0.785958,0.207551,0][0.184241,0.236368,1.06904][0.346457,-0.637795,0.692913][0.810928,0.236939,0][0.261524,-0.019314,0.516566][0.574803,-0.771654,0.283465][0.785958,0.240075,0][1.00449,0.242136,-0.609248][0.133858,-0.952756,-0.283465][0.727131,0.232891,0][0.184241,0.23637,-1.06903][0.346457,-0.637795,-0.692913][0.752101,0.203502,0][0.999396,0.545704,-1.26084][0.0314961,-0.740157,-0.669291][0.755759,0.239931,0][0.184241,0.23637,-1.06903][0.346457,-0.637795,-0.692913][0.752101,0.203502,0][1.00449,0.242136,-0.609248][0.133858,-0.952756,-0.283465][0.727131,0.232891,0][0.261524,-0.019312,-0.516562][0.574803,-0.771654,-0.283465][0.727131,0.200367,0][0.261524,-0.019314,0.516566][0.574803,-0.771654,0.283465][0.886415,0.236001,0][-0.433348,-0.67471,0.90687][0.629921,-0.448819,0.637795][0.865713,0.199093,0][-0.328618,-0.90021,0.438206][0.826772,-0.503937,0.251969][0.886415,0.192398,0][-0.433348,-0.674708,-0.906868][0.629921,-0.448819,-0.637795][0.823911,0.191916,0][0.261524,-0.019312,-0.516562][0.574803,-0.771654,-0.283465][0.844613,0.155008,0][-0.328618,-0.90021,-0.438204][0.826772,-0.503937,-0.251969][0.844613,0.198611,0][0.261524,-0.019312,-0.516562][0.574803,-0.771654,-0.283465][0.844613,0.155008,0][-0.433348,-0.674708,-0.906868][0.629921,-0.448819,-0.637795][0.823911,0.191916,0][0.184241,0.23637,-1.06903][0.346457,-0.637795,-0.692913][0.820971,0.146384,0][0.184241,0.236368,1.06904][0.346457,-0.637795,0.692913][0.820971,0.240902,0][-0.433348,-0.67471,0.90687][0.629921,-0.448819,0.637795][0.839337,0.199134,0][0.261524,-0.019314,0.516566][0.574803,-0.771654,0.283465][0.846137,0.240902,0][1.00573,0.168516,-4.5917e-18][0.15748,-0.984252,0][0.925269,0.088928,0][0.261524,-0.019314,0.516566][0.574803,-0.771654,0.283465][0.903918,0.057563,0][0.280268,-0.081318,-3.51876e-17][0.614173,-0.787402,0][0.925269,0.057462,0][0.261524,-0.019314,0.516566][0.574803,-0.771654,0.283465][0.903918,0.057563,0][1.00573,0.168516,-4.5917e-18][0.15748,-0.984252,0][0.925269,0.088928,0][1.00449,0.242136,0.609248][0.133858,-0.952756,0.283465][0.90012,0.089865,0][1.00573,0.168516,-4.5917e-18][0.15748,-0.984252,0][0.90068,0.25715,0][0.261524,-0.019312,-0.516562][0.574803,-0.771654,-0.283465][0.922031,0.225785,0][1.00449,0.242136,-0.609248][0.133858,-0.952756,-0.283465][0.92583,0.258088,0][0.261524,-0.019312,-0.516562][0.574803,-0.771654,-0.283465][0.922031,0.225785,0][1.00573,0.168516,-4.5917e-18][0.15748,-0.984252,0][0.90068,0.25715,0][0.280268,-0.081318,-3.51876e-17][0.614173,-0.787402,0][0.90068,0.225685,0][1.60589,0.2342,-0.62146][-0.0787402,-0.96063,-0.275591][0.789933,0.24074,0][0.999396,0.545704,-1.26084][0.0314961,-0.740157,-0.669291][0.814605,0.270079,0][1.69733,0.527778,-1.28612][-0.0472441,-0.755906,-0.653543][0.785958,0.27051,0][0.999396,0.545704,-1.26084][0.0314961,-0.740157,-0.669291][0.814605,0.270079,0][1.60589,0.2342,-0.62146][-0.0787402,-0.96063,-0.275591][0.789933,0.24074,0][1.00449,0.242136,-0.609248][0.133858,-0.952756,-0.283465][0.814605,0.240598,0][0.999396,0.545702,1.26085][0.0314961,-0.740157,0.669291][0.727131,0.269935,0][1.60589,0.2342,0.621462][-0.0787402,-0.96063,0.275591][0.751803,0.240596,0][1.69733,0.527778,1.28612][-0.0472441,-0.755906,0.653543][0.755778,0.270366,0][1.60589,0.2342,0.621462][-0.0787402,-0.96063,0.275591][0.751803,0.240596,0][0.999396,0.545702,1.26085][0.0314961,-0.740157,0.669291][0.727131,0.269935,0][1.00449,0.242136,0.609248][0.133858,-0.952756,0.283465][0.727131,0.240454,0][-0.433348,-0.67471,0.90687][0.629921,-0.448819,0.637795][0.781462,0.152937,0][-1.014,-1.88402,0.770888][0.566929,-0.503937,0.653543][0.781462,0.097638,0][-0.328618,-0.90021,0.438206][0.826772,-0.503937,0.251969][0.801539,0.144553,0][-0.328618,-0.90021,0.438206][0.826772,-0.503937,0.251969][0.801539,0.144553,0][-1.014,-1.88402,0.770888][0.566929,-0.503937,0.653543][0.781462,0.097638,0][-0.924972,-2.0757,0.372498][0.748031,-0.606299,0.275591][0.798529,0.090513,0][-1.014,-1.88402,-0.770884][0.566929,-0.503937,-0.653543][0.780938,0.097638,0][-0.328618,-0.90021,-0.438204][0.826772,-0.503937,-0.251969][0.76086,0.144553,0][-0.924972,-2.0757,-0.372494][0.748031,-0.606299,-0.275591][0.763871,0.090513,0][-0.328618,-0.90021,-0.438204][0.826772,-0.503937,-0.251969][0.76086,0.144553,0][-1.014,-1.88402,-0.770884][0.566929,-0.503937,-0.653543][0.780938,0.097638,0][-0.433348,-0.674708,-0.906868][0.629921,-0.448819,-0.637795][0.780938,0.152937,0][2.37174,0.379098,1.15564][0.141732,-0.787402,0.598425][0.686729,0.242975,0][1.69733,0.527778,1.28612][-0.0472441,-0.755906,0.653543][0.715295,0.239129,0][1.60589,0.2342,0.621462][-0.0787402,-0.96063,0.275591][0.715294,0.269163,0][2.37174,0.379098,1.15564][0.141732,-0.787402,0.598425][0.686729,0.242975,0][1.60589,0.2342,0.621462][-0.0787402,-0.96063,0.275591][0.715294,0.269163,0][2.28958,0.115306,0.558414][0.0393701,-0.968504,0.259843][0.686729,0.269963,0][2.28958,0.115306,-0.558412][0.0393701,-0.968504,-0.259843][0.849781,0.23663,0][1.60589,0.2342,-0.62146][-0.0787402,-0.96063,-0.275591][0.878346,0.237431,0][2.37174,0.3791,-1.15564][0.141732,-0.787402,-0.598425][0.849781,0.263618,0][1.60589,0.2342,-0.62146][-0.0787402,-0.96063,-0.275591][0.878346,0.237431,0][1.69733,0.527778,-1.28612][-0.0472441,-0.755906,-0.653543][0.878347,0.267464,0][2.37174,0.3791,-1.15564][0.141732,-0.787402,-0.598425][0.849781,0.263618,0][0.280268,-0.081318,-3.51876e-17][0.622047,-0.787402,0][0.895998,0.092203,0][-0.328618,-0.90021,-0.438204][0.826772,-0.503937,-0.251969][0.877903,0.134,0][0.261524,-0.019312,-0.516562][0.574803,-0.771654,-0.283465][0.874715,0.090513,0][-0.328618,-0.90021,-0.438204][0.826772,-0.503937,-0.251969][0.877903,0.134,0][0.280268,-0.081318,-3.51876e-17][0.622047,-0.787402,0][0.895998,0.092203,0][-0.30322,-0.954898,2e-06][0.858268,-0.503937,0][0.895998,0.135286,0][-0.328618,-0.90021,0.438206][0.826772,-0.503937,0.251969][0.896408,0.066507,0][0.280268,-0.081318,-3.51876e-17][0.622047,-0.787402,0][0.878313,0.02471,0][0.261524,-0.019314,0.516566][0.574803,-0.771654,0.283465][0.899596,0.02302,0][0.280268,-0.081318,-3.51876e-17][0.622047,-0.787402,0][0.878313,0.02471,0][-0.328618,-0.90021,0.438206][0.826772,-0.503937,0.251969][0.896408,0.066507,0][-0.30322,-0.954898,2e-06][0.858268,-0.503937,0][0.878313,0.067793,0][1.58372,0.163004,-5.26672e-18][-0.0866142,-1,0][0.959385,0.145234,0][1.00449,0.242136,-0.609248][0.133858,-0.952756,-0.283465][0.93568,0.119991,0][1.60589,0.2342,-0.62146][-0.0787402,-0.96063,-0.275591][0.960348,0.119582,0][1.00449,0.242136,-0.609248][0.133858,-0.952756,-0.283465][0.93568,0.119991,0][1.58372,0.163004,-5.26672e-18][-0.0866142,-1,0][0.959385,0.145234,0][1.00573,0.168516,-4.5917e-18][0.15748,-0.984252,0][0.93568,0.145159,0][1.00449,0.242136,0.609248][0.133858,-0.952756,0.283465][0.727131,0.296132,0][1.58372,0.163004,-5.26672e-18][-0.0866142,-1,0][0.750836,0.27089,0][1.60589,0.2342,0.621462][-0.0787402,-0.96063,0.275591][0.751799,0.296541,0][1.58372,0.163004,-5.26672e-18][-0.0866142,-1,0][0.750836,0.27089,0][1.00449,0.242136,0.609248][0.133858,-0.952756,0.283465][0.727131,0.296132,0][1.00573,0.168516,-4.5917e-18][0.15748,-0.984252,0][0.727131,0.270965,0][-0.924972,-2.0757,0.372498][0.748031,-0.606299,0.275591][0.854937,0.14457,0][-0.30322,-0.954898,2e-06][0.866142,-0.503937,0][0.839571,0.092032,0][-0.328618,-0.90021,0.438206][0.826772,-0.503937,0.251969][0.857648,0.090513,0][-0.30322,-0.954898,2e-06][0.866142,-0.503937,0][0.839571,0.092032,0][-0.924972,-2.0757,0.372498][0.748031,-0.606299,0.275591][0.854937,0.14457,0][-0.903382,-2.1222,2e-06][0.787402,-0.622047,0][0.839571,0.14586,0][-0.30322,-0.954898,2e-06][0.866142,-0.503937,0][0.820971,0.144341,0][-0.924972,-2.0757,-0.372494][0.748031,-0.606299,-0.275591][0.836337,0.091803,0][-0.328618,-0.90021,-0.438204][0.826772,-0.503937,-0.251969][0.839048,0.14586,0][-0.924972,-2.0757,-0.372494][0.748031,-0.606299,-0.275591][0.836337,0.091803,0][-0.30322,-0.954898,2e-06][0.866142,-0.503937,0][0.820971,0.144341,0][-0.903382,-2.1222,2e-06][0.787402,-0.622047,0][0.820971,0.090513,0][2.28958,0.115306,0.558414][0.0393701,-0.968504,0.259843][0.951873,0.258611,0][1.58372,0.163004,-5.26672e-18][-0.0866142,-1,0][0.928333,0.287109,0][2.26966,0.051334,-1.89423e-17][0.015748,-1,0][0.928807,0.258613,0][1.58372,0.163004,-5.26672e-18][-0.0866142,-1,0][0.928333,0.287109,0][2.28958,0.115306,0.558414][0.0393701,-0.968504,0.259843][0.951873,0.258611,0][1.60589,0.2342,0.621462][-0.0787402,-0.96063,0.275591][0.954002,0.287109,0][1.58372,0.163004,-5.26672e-18][-0.0866142,-1,0][0.92949,0.146384,0][2.28958,0.115306,-0.558412][0.0393701,-0.968504,-0.259843][0.95303,0.174882,0][2.26966,0.051334,-1.89423e-17][0.015748,-1,0][0.929964,0.17488,0][2.28958,0.115306,-0.558412][0.0393701,-0.968504,-0.259843][0.95303,0.174882,0][1.58372,0.163004,-5.26672e-18][-0.0866142,-1,0][0.92949,0.146384,0][1.60589,0.2342,-0.62146][-0.0787402,-0.96063,-0.275591][0.955159,0.146384,0][-2.65278,-1.81294,0.218466][-0.370079,0.866142,0.322835][0.542772,0.896454,0][-3.11714,-1.91556,0.316052][-0.204724,0.661417,0.716535][0.55965,0.826433,0][-2.60738,-1.93286,0.452112][-0.385827,0.574803,0.716535][0.566914,0.907503,0][-3.11714,-1.91556,0.316052][-0.204724,0.661417,0.716535][0.55965,0.826433,0][-2.65278,-1.81294,0.218466][-0.370079,0.866142,0.322835][0.542772,0.896454,0][-3.14888,-1.83173,0.15272][-0.00787402,0.952756,0.307087][0.542772,0.818715,0][-2.60738,-1.93286,-0.452108][-0.385827,0.574803,-0.716535][0.258565,0.7066,0][-3.11714,-1.91556,-0.316046][-0.204724,0.661417,-0.716535][0.265829,0.62553,0][-2.65278,-1.81294,-0.218462][-0.370079,0.866142,-0.322835][0.282706,0.695551,0][-3.14888,-1.83173,-0.152716][-0.00787402,0.952756,-0.307087][0.282706,0.617812,0][-2.65278,-1.81294,-0.218462][-0.370079,0.866142,-0.322835][0.282706,0.695551,0][-3.11714,-1.91556,-0.316046][-0.204724,0.661417,-0.716535][0.265829,0.62553,0][-2.6638,-1.78386,2e-06][-0.370079,0.929134,0][0.340856,0.851109,0][-3.14888,-1.83173,0.15272][-0.00787402,0.952756,0.307087][0.326369,0.92671,0][-2.65278,-1.81294,0.218466][-0.370079,0.866142,0.322835][0.320134,0.84965,0][-3.14888,-1.83173,0.15272][-0.00787402,0.952756,0.307087][0.326369,0.92671,0][-2.6638,-1.78386,2e-06][-0.370079,0.929134,0][0.340856,0.851109,0][-3.15658,-1.8114,2e-06][0.0314961,1,0][0.340856,0.927724,0][-2.65278,-1.81294,-0.218462][-0.370079,0.866142,-0.322835][0.408871,0.850077,0][-3.14888,-1.83173,-0.152716][-0.00787402,0.952756,-0.307087][0.402636,0.927137,0][-2.6638,-1.78386,2e-06][-0.370079,0.929134,0][0.388149,0.851535,0][-3.15658,-1.8114,2e-06][0.0314961,1,0][0.388149,0.928151,0][-2.6638,-1.78386,2e-06][-0.370079,0.929134,0][0.388149,0.851535,0][-3.14888,-1.83173,-0.152716][-0.00787402,0.952756,-0.307087][0.402636,0.927137,0][-3.14888,-1.83173,0.15272][-0.00787402,0.952756,0.307087][0.084898,0.827148,0][-3.52718,-1.79763,0.0963][-0.771654,0.393701,0.503937][0.098092,0.771662,0][-3.11714,-1.91556,0.316052][-0.204724,0.661417,0.716535][0.098092,0.846168,0][-3.52718,-1.79763,0.0963][-0.771654,0.393701,0.503937][0.098092,0.771662,0][-3.14888,-1.83173,0.15272][-0.00787402,0.952756,0.307087][0.084898,0.827148,0][-3.53686,-1.77208,0.046534][-0.724409,0.637795,0.259843][0.094071,0.765869,0][-3.11714,-1.91556,-0.316046][-0.204724,0.661417,-0.716535][0.269512,0.788293,0][-3.52718,-1.79763,-0.096294][-0.771654,0.393701,-0.503937][0.269512,0.713787,0][-3.14888,-1.83173,-0.152716][-0.00787402,0.952756,-0.307087][0.282706,0.769274,0][-3.53686,-1.77208,-0.046528][-0.732283,0.637795,-0.251969][0.273533,0.707995,0][-3.14888,-1.83173,-0.152716][-0.00787402,0.952756,-0.307087][0.282706,0.769274,0][-3.52718,-1.79763,-0.096294][-0.771654,0.393701,-0.503937][0.269512,0.713787,0][-3.14888,-1.83173,-0.152716][-0.00787402,0.952756,-0.307087][0.175218,0.453722,0][-3.53686,-1.77208,-0.046528][-0.732283,0.637795,-0.259843][0.165159,0.514627,0][-3.15658,-1.8114,2e-06][0.0393701,1,0][0.16075,0.455286,0][-3.5392,-1.76589,4e-06][-0.716535,0.700787,0][0.16075,0.515099,0][-3.15658,-1.8114,2e-06][0.0393701,1,0][0.16075,0.455286,0][-3.53686,-1.77208,-0.046528][-0.732283,0.637795,-0.259843][0.165159,0.514627,0][-3.15658,-1.8114,2e-06][0.0393701,1,0][0.176062,0.513535,0][-3.53686,-1.77208,0.046534][-0.724409,0.637795,0.259843][0.180471,0.454194,0][-3.14888,-1.83173,0.15272][-0.00787402,0.952756,0.307087][0.190531,0.515098,0][-3.53686,-1.77208,0.046534][-0.724409,0.637795,0.259843][0.180471,0.454194,0][-3.15658,-1.8114,2e-06][0.0393701,1,0][0.176062,0.513535,0][-3.5392,-1.76589,4e-06][-0.716535,0.700787,0][0.176062,0.453722,0]